<svg id="Layer_1" data-name="Layer 1" xmlns="http://www.w3.org/2000/svg" xmlns:xlink="http://www.w3.org/1999/xlink" viewBox="0 0 156 40"><defs><style>.cls-1{fill:url(#linear-gradient);}.cls-2{fill:url(#linear-gradient-2);}.cls-3{fill:#fff;}.cls-4{fill:url(#linear-gradient-3);}.cls-5{fill:#333;}.cls-6{fill:url(#linear-gradient-4);}</style><linearGradient id="linear-gradient" x1="21.08" y1="-18656" x2="21.08" y2="-18616" gradientTransform="matrix(1, 0, 0, -1, 0, -18616)" gradientUnits="userSpaceOnUse"><stop offset="0" stop-color="#0028ff"/><stop offset="1" stop-color="#00d7f3"/></linearGradient><linearGradient id="linear-gradient-2" x1="21.32" y1="18.16" x2="21.32" y2="25.83" gradientTransform="matrix(1, 0, 0, -1, 0, 42)" gradientUnits="userSpaceOnUse"><stop offset="0" stop-color="#0028ff"/><stop offset="0.9" stop-color="#00d7f3"/></linearGradient><linearGradient id="linear-gradient-3" x1="53.36" y1="11.49" x2="53.36" y2="25.63" gradientUnits="userSpaceOnUse"><stop offset="0" stop-color="#00d7f3"/><stop offset="1" stop-color="#0028ff"/></linearGradient><linearGradient id="linear-gradient-4" x1="104.83" y1="11.27" x2="104.83" y2="25.77" xlink:href="#linear-gradient-3"/></defs><path class="cls-1" d="M41.08,20a20,20,0,1,1-20-20A20,20,0,0,1,41.08,20Z"/><polygon class="cls-2" points="21.32 16.17 24.66 18.05 24.66 21.96 21.32 23.84 17.98 21.96 17.98 18.05 21.32 16.17"/><path class="cls-3" d="M25.08,9.33A1.13,1.13,0,1,1,24,8.2,1.13,1.13,0,0,1,25.08,9.33Z"/><path class="cls-3" d="M11.64,23.17A1.14,1.14,0,1,1,10.51,22,1.14,1.14,0,0,1,11.64,23.17Z"/><path class="cls-3" d="M30.48,27.63a1.13,1.13,0,1,1-1.13-1.13A1.13,1.13,0,0,1,30.48,27.63Z"/><path class="cls-3" d="M30.89,20c.37-.36.73-.72,1.05-1.08,2.72-3,2.57-4.94,2-6s-2.15-2.18-6.15-1.43a28.4,28.4,0,0,0-6.44,2.17c-.87.4-1.74.85-2.61,1.33l-.16.09-.32.18c0-.15,0-.29.07-.43a20.89,20.89,0,0,1,.43-2.25c.14-.58.29-1.13.46-1.64a11.85,11.85,0,0,1,1.57-3A5.54,5.54,0,0,1,23,6.08a2.87,2.87,0,0,0-1.66-.53c-1.22,0-2.95.81-4.27,4.67-.18.52-.33,1.08-.48,1.66-.58-.16-1.15-.29-1.69-.4-4-.75-5.56.36-6.15,1.43s-.75,3,2,6q.48.54,1.05,1.08h0q.78.75,1.68,1.47h0c.73.59,1.52,1.17,2.35,1.74s1.59,1,2.43,1.51l.32.18.16.09-.42.16c-.74.28-1.47.53-2.17.73s-1.12.3-1.65.4a14.17,14.17,0,0,1-3,.32,6.77,6.77,0,0,1-3.13-.83,2.93,2.93,0,0,0,.36,1.3c.46.82,1.49,1.67,3.78,1.67a14.05,14.05,0,0,0,2.38-.24c.54-.11,1.11-.24,1.68-.4.15.58.31,1.14.49,1.66,1.3,3.86,3,4.67,4.26,4.67s3-.81,4.27-4.67a27.13,27.13,0,0,0,1.25-6.55c.08-.93.12-1.89.13-2.86v-.74l.47.37a22.1,22.1,0,0,1,1.74,1.49c.39.37.75.74,1.07,1.1a8.45,8.45,0,0,1,1.89,3,13.44,13.44,0,0,1,.54,2.67,3,3,0,0,0,1.24-1.15c.6-1.07.74-3-2-6C31.62,20.73,31.26,20.37,30.89,20ZM15.8,16.78c-.07.93-.11,1.89-.12,2.86v.74L15.2,20a22.1,22.1,0,0,1-1.74-1.49c-.39-.37-.75-.74-1.07-1.1-1.52-1.69-2-2.94-1.7-3.39.17-.3.79-.51,1.82-.51a11,11,0,0,1,2,.2q.8.15,1.65.39C16,15,15.88,15.86,15.8,16.78Zm8.54,8.4c-.11.79-.26,1.54-.43,2.25s-.29,1.12-.47,1.64c-.72,2.16-1.61,3.13-2.12,3.13s-1.39-1-2.13-3.13c-.17-.51-.32-1.06-.46-1.64.85-.31,1.71-.67,2.59-1.08s1.74-.84,2.61-1.33l.15-.08.33-.18C24.38,24.89,24.37,25,24.34,25.18ZM24.66,22l-3.34,1.88L18,22V18.05l3.34-1.88,3.34,1.88Zm4.53-3.44c-.73-.59-1.52-1.18-2.36-1.74s-1.58-1-2.42-1.51c-.11-.07-.22-.12-.33-.18a.6.6,0,0,0-.15-.09l.41-.16a21.31,21.31,0,0,1,2.17-.73c.57-.16,1.13-.3,1.66-.4a11,11,0,0,1,1.95-.2c1,0,1.66.22,1.82.51.25.45-.17,1.7-1.69,3.39C29.93,17.78,29.57,18.15,29.19,18.52Z"/><path class="cls-4" d="M59.64,25.63H56.22L50.5,17v8.68H47.08V11.49H50.5l5.72,8.76V11.49h3.42Z"/><path class="cls-5" d="M73.1,14.47V25.63H69.66v-2a3.77,3.77,0,0,1-1.43,1.56,4.14,4.14,0,0,1-2.21.58,3.87,3.87,0,0,1-3-1.28A5.1,5.1,0,0,1,61.84,21V14.47h3.4v6.06a2.46,2.46,0,0,0,.59,1.77,2.06,2.06,0,0,0,1.59.63,2.11,2.11,0,0,0,1.64-.66,2.7,2.7,0,0,0,.6-1.88V14.47Z"/><path class="cls-5" d="M82.22,25.63l-3.34-4.74v4.74H75.46V10.83h3.42V19l3.34-4.48h4l-4.5,5.58,4.6,5.58Z"/><path class="cls-5" d="M98.08,20.67H90.34A2.58,2.58,0,0,0,91,22.48a2,2,0,0,0,1.48.55,2.07,2.07,0,0,0,1.26-.38,1.8,1.8,0,0,0,.66-1H98a4.79,4.79,0,0,1-1,2.11,5.14,5.14,0,0,1-1.88,1.46,6.42,6.42,0,0,1-5.45-.16,4.89,4.89,0,0,1-2-2,6.18,6.18,0,0,1-.72-3A6.17,6.17,0,0,1,87.71,17a4.81,4.81,0,0,1,2-2,6,6,0,0,1,2.92-.69,6.11,6.11,0,0,1,2.92.68,4.78,4.78,0,0,1,1.95,1.91,5.68,5.68,0,0,1,.69,2.83A5.26,5.26,0,0,1,98.08,20.67Zm-4-3.09A2.16,2.16,0,0,0,92.62,17a2.24,2.24,0,0,0-1.56.56,2.3,2.3,0,0,0-.7,1.64h4.36A2.1,2.1,0,0,0,94.13,17.58Z"/><path class="cls-6" d="M109.55,23.71a4,4,0,0,1-1.68,1.5,6,6,0,0,1-2.69.56,6.34,6.34,0,0,1-3.92-1.16,4.17,4.17,0,0,1-1.68-3.24h3.64a1.9,1.9,0,0,0,.57,1.26,1.72,1.72,0,0,0,1.25.46,1.46,1.46,0,0,0,1-.36,1.27,1.27,0,0,0,.38-1,1.25,1.25,0,0,0-.35-.9,2.84,2.84,0,0,0-.87-.59c-.35-.15-.83-.34-1.44-.55a16.86,16.86,0,0,1-2.19-.89,4,4,0,0,1-1.46-1.28,3.68,3.68,0,0,1-.61-2.21,3.69,3.69,0,0,1,.64-2.18A4,4,0,0,1,102,11.76a6.37,6.37,0,0,1,2.59-.49,5.8,5.8,0,0,1,3.75,1.12,4.3,4.3,0,0,1,1.57,3.08h-3.7a1.92,1.92,0,0,0-.51-1.11,1.53,1.53,0,0,0-1.11-.41,1.44,1.44,0,0,0-1,.32,1.16,1.16,0,0,0-.37.94,1.19,1.19,0,0,0,.33.85,2.55,2.55,0,0,0,.83.57c.33.15.81.33,1.44.56a17,17,0,0,1,2.22.91,4.37,4.37,0,0,1,1.48,1.31,3.76,3.76,0,0,1,.62,2.24A3.9,3.9,0,0,1,109.55,23.71Z"/><path class="cls-5" d="M128.34,14.47l-2.86,11.16h-3.82l-2-7.48-2,7.48h-3.82l-2.86-11.16h3.42l1.48,8,2.08-8h3.64l2.14,8.06,1.48-8.06Z"/><path class="cls-5" d="M136,14.91a3.55,3.55,0,0,1,1.36,1.58v-2h3.4V25.63h-3.4v-2A3.55,3.55,0,0,1,136,25.19a4,4,0,0,1-2.2.58,4.5,4.5,0,0,1-2.47-.69,4.68,4.68,0,0,1-1.72-2,6.91,6.91,0,0,1-.63-3,6.89,6.89,0,0,1,.63-3.05,4.71,4.71,0,0,1,1.72-2,4.5,4.5,0,0,1,2.47-.69A4,4,0,0,1,136,14.91Zm-2.87,3.14a2.81,2.81,0,0,0-.67,2,2.81,2.81,0,0,0,.67,2,2.28,2.28,0,0,0,1.77.72,2.32,2.32,0,0,0,1.77-.74,2.78,2.78,0,0,0,.69-2,2.78,2.78,0,0,0-.69-2,2.32,2.32,0,0,0-1.77-.73A2.28,2.28,0,0,0,133.15,18.05Z"/><path class="cls-5" d="M152.57,15a4.78,4.78,0,0,1,1.72,2,6.89,6.89,0,0,1,.63,3.05,6.91,6.91,0,0,1-.63,3,4.75,4.75,0,0,1-1.72,2,4.53,4.53,0,0,1-2.47.69,4,4,0,0,1-2.2-.58,3.33,3.33,0,0,1-1.34-1.58V31h-3.42V14.47h3.42v2a3.33,3.33,0,0,1,1.34-1.58,4,4,0,0,1,2.2-.58A4.53,4.53,0,0,1,152.57,15Zm-5.35,3a2.82,2.82,0,0,0-.68,2,2.82,2.82,0,0,0,.68,2,2.35,2.35,0,0,0,1.78.74,2.31,2.31,0,0,0,1.77-.72,2.86,2.86,0,0,0,.67-2,2.86,2.86,0,0,0-.67-2,2.31,2.31,0,0,0-1.77-.72A2.34,2.34,0,0,0,147.22,18.06Z"/></svg>