<svg id="Layer_1" data-name="Layer 1" xmlns="http://www.w3.org/2000/svg" xmlns:xlink="http://www.w3.org/1999/xlink" viewBox="0 0 40 40"><defs><style>.cls-1{fill:url(#linear-gradient);}.cls-2{fill:url(#linear-gradient-2);}.cls-3{fill:#fff;}</style><linearGradient id="linear-gradient" x1="19.97" y1="-18656" x2="19.97" y2="-18616" gradientTransform="matrix(1, 0, 0, -1, 0, -18616)" gradientUnits="userSpaceOnUse"><stop offset="0" stop-color="#0028ff"/><stop offset="1" stop-color="#00d7f3"/></linearGradient><linearGradient id="linear-gradient-2" x1="20.21" y1="18.16" x2="20.21" y2="25.83" gradientTransform="matrix(1, 0, 0, -1, 0, 42)" gradientUnits="userSpaceOnUse"><stop offset="0" stop-color="#0028ff"/><stop offset="0.9" stop-color="#00d7f3"/></linearGradient></defs><path class="cls-1" d="M40,20A20,20,0,1,1,20,0,20,20,0,0,1,40,20Z"/><polygon class="cls-2" points="20.21 16.17 23.55 18.05 23.55 21.96 20.21 23.84 16.86 21.96 16.86 18.05 20.21 16.17"/><path class="cls-3" d="M24,9.33A1.13,1.13,0,1,1,22.84,8.2,1.13,1.13,0,0,1,24,9.33Z"/><path class="cls-3" d="M10.53,23.17A1.14,1.14,0,1,1,9.4,22,1.14,1.14,0,0,1,10.53,23.17Z"/><path class="cls-3" d="M29.37,27.63a1.13,1.13,0,1,1-1.13-1.13A1.14,1.14,0,0,1,29.37,27.63Z"/><path class="cls-3" d="M29.78,20c.37-.36.73-.72,1-1.08,2.71-3,2.57-4.94,2-6s-2.15-2.18-6.15-1.43a28.4,28.4,0,0,0-6.44,2.17c-.87.4-1.74.85-2.61,1.33l-.16.09-.32.18c0-.15,0-.29.07-.43q.16-1.19.42-2.25c.15-.58.3-1.13.47-1.64a11.53,11.53,0,0,1,1.57-3,5.57,5.57,0,0,1,2.21-1.81,2.83,2.83,0,0,0-1.65-.53c-1.22,0-2.95.81-4.27,4.67-.18.52-.33,1.08-.48,1.66-.58-.16-1.15-.29-1.69-.4-4-.75-5.56.36-6.16,1.43s-.74,3,2,6q.48.54,1.05,1.08h0q.78.75,1.68,1.47h0c.73.59,1.51,1.17,2.35,1.74s1.59,1,2.43,1.51l.32.18.16.09-.42.16c-.74.28-1.47.53-2.17.73s-1.12.3-1.66.4a14,14,0,0,1-3,.32,6.77,6.77,0,0,1-3.13-.83,2.93,2.93,0,0,0,.36,1.3c.46.82,1.49,1.67,3.78,1.67a14.05,14.05,0,0,0,2.38-.24c.54-.11,1.11-.24,1.68-.4.15.58.31,1.14.49,1.66,1.3,3.86,3,4.67,4.26,4.67s3-.81,4.27-4.67a28.13,28.13,0,0,0,1.25-6.55c.08-.93.12-1.89.12-2.86v-.74l.48.37a22.1,22.1,0,0,1,1.74,1.49c.39.37.75.74,1.07,1.1a8.45,8.45,0,0,1,1.89,3,14.21,14.21,0,0,1,.54,2.67,3,3,0,0,0,1.24-1.15c.6-1.07.74-3-2-6C30.51,20.73,30.15,20.37,29.78,20ZM14.69,16.78c-.08.93-.11,1.89-.12,2.86v.74L14.09,20a22.1,22.1,0,0,1-1.74-1.49c-.39-.37-.75-.74-1.07-1.1C9.76,15.73,9.33,14.48,9.58,14c.17-.3.78-.51,1.82-.51a11,11,0,0,1,2,.2q.8.15,1.65.39C14.87,15,14.77,15.86,14.69,16.78Zm8.54,8.4c-.12.79-.26,1.54-.43,2.25s-.29,1.12-.47,1.64c-.72,2.16-1.61,3.13-2.12,3.13s-1.39-1-2.13-3.13c-.17-.51-.32-1.06-.47-1.64.86-.31,1.72-.67,2.6-1.08S22,25.51,22.82,25l.15-.08.32-.18C23.27,24.89,23.26,25,23.23,25.18ZM23.54,22l-3.33,1.88L16.86,22V18.05l3.35-1.88,3.34,1.88Zm4.54-3.44c-.73-.59-1.52-1.18-2.36-1.74s-1.58-1-2.43-1.51a3.3,3.3,0,0,0-.32-.18.6.6,0,0,0-.15-.09l.41-.16a21.31,21.31,0,0,1,2.17-.73c.57-.16,1.13-.3,1.66-.4a11,11,0,0,1,2-.2c1,0,1.66.22,1.82.51.25.45-.17,1.7-1.69,3.39C28.82,17.78,28.46,18.15,28.08,18.52Z"/></svg>