<svg id="Layer_1" data-name="Layer 1" xmlns="http://www.w3.org/2000/svg" xmlns:xlink="http://www.w3.org/1999/xlink" viewBox="0 0 64 64"><defs><style>.cls-1{fill:url(#linear-gradient);}.cls-2{fill:url(#linear-gradient-2);}.cls-3{fill:#fff;}</style><linearGradient id="linear-gradient" x1="31.89" y1="-18656" x2="31.89" y2="-18592" gradientTransform="matrix(1, 0, 0, -1, 0, -18592)" gradientUnits="userSpaceOnUse"><stop offset="0" stop-color="#0028ff"/><stop offset="1" stop-color="#00d7f3"/></linearGradient><linearGradient id="linear-gradient-2" x1="32.26" y1="27.85" x2="32.26" y2="40.12" gradientTransform="matrix(1, 0, 0, -1, 0, 66)" gradientUnits="userSpaceOnUse"><stop offset="0" stop-color="#0028ff"/><stop offset="0.9" stop-color="#00d7f3"/></linearGradient></defs><path class="cls-1" d="M63.89,32a32,32,0,1,1-32-32A32,32,0,0,1,63.89,32Z"/><polygon class="cls-2" points="32.26 25.88 37.61 28.89 37.6 35.14 32.26 38.15 26.91 35.14 26.91 28.89 32.26 25.88"/><path class="cls-3" d="M38.29,14.93a1.82,1.82,0,1,1-1.81-1.82A1.84,1.84,0,0,1,38.29,14.93Z"/><path class="cls-3" d="M16.78,37.08A1.82,1.82,0,1,1,15,35.26,1.84,1.84,0,0,1,16.78,37.08Z"/><path class="cls-3" d="M46.93,44.21a1.82,1.82,0,1,1-1.82-1.81A1.83,1.83,0,0,1,46.93,44.21Z"/><path class="cls-3" d="M47.58,32c.6-.57,1.16-1.15,1.67-1.72,4.35-4.85,4.13-7.9,3.16-9.61S49,17.19,42.56,18.39a45.59,45.59,0,0,0-10.3,3.47c-1.38.64-2.78,1.35-4.17,2.13l-.25.14-.51.28c0-.23.06-.46.1-.68.18-1.27.41-2.47.68-3.6.23-.93.48-1.8.75-2.63a18.36,18.36,0,0,1,2.5-4.87c.42-.54,2-2.43,3.55-2.9a4.6,4.6,0,0,0-2.65-.85c-1.95,0-4.72,1.3-6.82,7.47-.29.84-.54,1.73-.78,2.66-.92-.26-1.83-.47-2.7-.63-6.41-1.2-8.9.57-9.85,2.28s-1.18,4.77,3.17,9.62c.51.57,1.07,1.15,1.67,1.72h0s0,0,.06,0c.83.79,1.73,1.57,2.69,2.35h0c1.16.94,2.42,1.87,3.76,2.77s2.54,1.65,3.89,2.43l.51.29c.09,0,.18.08.25.13l-.66.27c-1.19.45-2.35.85-3.48,1.16-.91.26-1.8.47-2.65.64a22.22,22.22,0,0,1-4.73.51c-1.37,0-4.09-.56-5-1.33a4.51,4.51,0,0,0,.58,2.08c.74,1.31,2.39,2.67,6.05,2.67a21.82,21.82,0,0,0,3.8-.38c.87-.17,1.77-.38,2.7-.64.24.94.49,1.82.77,2.66,2.09,6.17,4.87,7.47,6.83,7.47s4.72-1.3,6.82-7.47a44.14,44.14,0,0,0,2-10.49c.13-1.48.19-3,.2-4.57V31.41l.77.59a35.86,35.86,0,0,1,2.78,2.39c.63.59,1.2,1.17,1.72,1.75a13.53,13.53,0,0,1,3,4.77,22.31,22.31,0,0,1,.87,4.28,4.71,4.71,0,0,0,2-1.85c1-1.7,1.19-4.76-3.16-9.61C48.74,33.16,48.18,32.59,47.58,32ZM23.44,26.85c-.13,1.49-.19,3-.2,4.58V32.6L22.48,32a32.17,32.17,0,0,1-2.79-2.39c-.63-.58-1.2-1.17-1.71-1.74-2.44-2.72-3.12-4.72-2.72-5.43.27-.48,1.25-.83,2.92-.83A17,17,0,0,1,21.3,22c.85.16,1.74.37,2.65.62C23.73,24,23.56,25.38,23.44,26.85ZM37.1,40.29c-.19,1.26-.41,2.46-.69,3.6-.22.92-.47,1.8-.75,2.62-1.16,3.45-2.57,5-3.4,5s-2.22-1.58-3.4-5c-.27-.81-.52-1.7-.75-2.62,1.37-.5,2.75-1.08,4.15-1.73s2.79-1.35,4.18-2.12l.25-.14.51-.29C37.16,39.83,37.14,40.06,37.1,40.29Zm.5-5.15-5.34,3-5.35-3V28.89l5.35-3,5.35,3Zm7.25-5.51c-1.16-.94-2.42-1.88-3.76-2.78s-2.54-1.65-3.89-2.42l-.51-.29c-.09-.05-.16-.1-.25-.14l.66-.26c1.19-.45,2.35-.85,3.48-1.16a26.69,26.69,0,0,1,2.65-.64,17.08,17.08,0,0,1,3.12-.33c1.66,0,2.65.36,2.91.83.4.71-.27,2.71-2.71,5.42C46,28.45,45.46,29,44.85,29.63Z"/></svg>