<svg xmlns="http://www.w3.org/2000/svg" xmlns:xlink="http://www.w3.org/1999/xlink" viewBox="0 0 202 134"><defs><style>.cls-1{mask:url(#mask);filter:url(#luminosity-noclip-2);}.cls-113,.cls-2,.cls-6{mix-blend-mode:multiply;}.cls-2{fill:url(#radial-gradient);}.cls-3{fill:none;}.cls-4{isolation:isolate;}.cls-5{mask:url(#mask-2);}.cls-113,.cls-6{opacity:0.2;}.cls-6{fill:url(#radial-gradient-2);}.cls-7{clip-path:url(#clip-path);}.cls-8{fill:#ffb723;}.cls-9{fill:#ffb823;}.cls-10{fill:#ffb824;}.cls-11{fill:#ffb924;}.cls-12{fill:#ffb925;}.cls-13{fill:#ffba25;}.cls-14{fill:#ffba26;}.cls-15{fill:#ffbc26;}.cls-16{fill:#ffb722;}.cls-17{fill:#ffb522;}.cls-18{fill:#ffb521;}.cls-19{fill:#ffb321;}.cls-20{fill:#ffb320;}.cls-21{fill:#ffb220;}.cls-22{fill:#ffb11f;}.cls-23{fill:#ffb21f;}.cls-24{fill:#ffb21e;}.cls-25{fill:#ffb11e;}.cls-26{fill:#ffb11d;}.cls-27{fill:#ffaf1d;}.cls-28{fill:#ffaf1c;}.cls-29{fill:#ffae1c;}.cls-30{fill:#ffad1b;}.cls-31{fill:#ffab1a;}.cls-32{fill:#ffab19;}.cls-33{fill:#ffaa19;}.cls-34{fill:#ffa918;}.cls-35{fill:#ffa717;}.cls-36{fill:#ffa716;}.cls-37{fill:#ffa616;}.cls-38{fill:#ffa515;}.cls-39{fill:#ffa314;}.cls-40{fill:#ffa313;}.cls-41{fill:#ffa113;}.cls-42{fill:#ffa012;}.cls-43{fill:#ff9f11;}.cls-44{fill:#ff9e10;}.cls-45{fill:#ff9d10;}.cls-46{fill:#ff9d0f;}.cls-47{fill:#ff9c0f;}.cls-48{fill:#ff9c0e;}.cls-49{fill:#ff990e;}.cls-50{fill:#ff990d;}.cls-51{fill:#ff980d;}.cls-52{fill:#ff990c;}.cls-53{fill:#ff970c;}.cls-54{fill:#ff9202;}.cls-55{fill:#ff9409;}.cls-56{fill:#ffcc36;}.cls-57{clip-path:url(#clip-path-2);}.cls-58{fill:#ff9a0b;}.cls-59{fill:#ff9b0b;}.cls-60{fill:#ff9b0d;}.cls-61{fill:#ff9904;}.cls-62{fill:#ff9d0e;}.cls-63{fill:#ff9e0f;}.cls-64{fill:#ff9f0f;}.cls-65{fill:#ffa010;}.cls-66{fill:#ffa110;}.cls-67{fill:#ffa111;}.cls-68{fill:#ffa211;}.cls-69{fill:#ffa212;}.cls-70{fill:#ff9d02;}.cls-71{fill:#ffa513;}.cls-72{fill:#ffa514;}.cls-73{fill:#ffa614;}.cls-74{fill:#ffa615;}.cls-75{fill:#ffa715;}.cls-76{fill:#ffa816;}.cls-77{fill:#ffa817;}.cls-78{fill:#ffa917;}.cls-79{fill:#ffaa18;}.cls-80{fill:#ffad1a;}.cls-81{fill:#ffae1b;}.cls-82{fill:#ffaf1b;}.cls-83{fill:#ffb01c;}.cls-84{fill:#ffb01d;}.cls-85{fill:#ffb31f;}.cls-86{fill:#ffb420;}.cls-87{fill:#ffb621;}.cls-88{fill:#ffb822;}.cls-89{fill:#ffbb26;}.cls-90{fill:#ffbc27;}.cls-91{fill:#ffbe27;}.cls-92{fill:#ffbe28;}.cls-93{fill:#ffbf28;}.cls-94{clip-path:url(#clip-path-3);}.cls-95{clip-path:url(#clip-path-4);}.cls-96{clip-path:url(#clip-path-5);}.cls-97{clip-path:url(#clip-path-6);}.cls-98{fill:#ffbf29;}.cls-99{fill:#ffc029;}.cls-100{fill:#ffc02a;}.cls-101{fill:#ffc12a;}.cls-102{fill:#ffc12b;}.cls-103{fill:#ffc22b;}.cls-104{fill:#ffc22c;}.cls-105{fill:#ffc32c;}.cls-106{fill:#ffc32d;}.cls-107{fill:#ffc52d;}.cls-108{fill:#ffc52e;}.cls-109{clip-path:url(#clip-path-7);}.cls-110{clip-path:url(#clip-path-8);}.cls-111{fill:#ffd53c;}.cls-112{clip-path:url(#clip-path-9);}.cls-114{fill:#999;}.cls-115{fill:#ffe6a9;}.cls-116{fill:#ffd064;}.cls-117{fill:#fff;}.cls-118{filter:url(#luminosity-noclip);}</style><filter id="luminosity-noclip" x="0" y="-8259" width="202" height="32766" filterUnits="userSpaceOnUse" color-interpolation-filters="sRGB"><feFlood flood-color="#fff" result="bg"/><feBlend in="SourceGraphic" in2="bg"/></filter><mask id="mask" x="0" y="-8259" width="202" height="32766" maskUnits="userSpaceOnUse"><g class="cls-118"/></mask><radialGradient id="radial-gradient" cx="308.25" cy="-1069.82" r="89.25" gradientTransform="translate(-247.94 285.64) scale(1.13 0.17)" gradientUnits="userSpaceOnUse"><stop offset="0" stop-color="#fff"/><stop offset="0.08" stop-color="#e4e4e4"/><stop offset="0.34" stop-color="#949494"/><stop offset="0.57" stop-color="#545454"/><stop offset="0.77" stop-color="#272727"/><stop offset="0.91" stop-color="#0a0a0a"/><stop offset="1"/></radialGradient><filter id="luminosity-noclip-2" x="0" y="84.08" width="202" height="31.05" filterUnits="userSpaceOnUse" color-interpolation-filters="sRGB"><feFlood flood-color="#fff" result="bg"/><feBlend in="SourceGraphic" in2="bg"/></filter><mask id="mask-2" x="0" y="84.08" width="202" height="31.05" maskUnits="userSpaceOnUse"><g class="cls-1"><ellipse class="cls-2" cx="101" cy="99.6" rx="101" ry="15.53"/></g></mask><radialGradient id="radial-gradient-2" cx="308.25" cy="-1069.82" r="89.25" gradientTransform="translate(-247.94 285.64) scale(1.13 0.17)" gradientUnits="userSpaceOnUse"><stop offset="0" stop-color="gray"/><stop offset="0.27" stop-color="#ababab"/><stop offset="0.6" stop-color="#d8d8d8"/><stop offset="0.85" stop-color="#f5f5f5"/><stop offset="1" stop-color="#fff"/></radialGradient><clipPath id="clip-path"><path class="cls-3" d="M128.88,78.81c-.27.36-.55.71-.83,1.07A27.59,27.59,0,0,1,109.76,90C91.43,92.62,71.61,79.89,65.48,61.62,62,51.16,63.71,41.16,69.27,34h0c.27-.36.55-.71.83-1.07-5.56,7.13-7.29,17.13-3.79,27.59,6.13,18.27,26,31,44.28,28.42A27.53,27.53,0,0,0,128.88,78.81Z"/></clipPath><clipPath id="clip-path-2"><path class="cls-3" d="M130.58,57.1l0,.11,0,.2,0,.11s0,.1,0,.14c-.05-.28-.12-.56-.18-.84a30.32,30.32,0,0,0-.93-3.26,29.8,29.8,0,0,0-1.25-3.22c-.46-1.07-1-2.07-1.53-3.07s-1.16-2-1.8-2.93-1.33-1.87-2-2.76a42.86,42.86,0,0,0-10.18-9.11A41.29,41.29,0,0,0,100.4,27.1a32.82,32.82,0,0,0-3.28-.66,30,30,0,0,0-3.3-.35,30.62,30.62,0,0,0-3.32,0l-.66,0h.62L91,26c1.08,0,2.17,0,3.26,0s2.18.18,3.26.35,2.16.38,3.22.64a41,41,0,0,1,12.19,5.29,42.27,42.27,0,0,1,10,9c.71.88,1.38,1.78,2,2.72s1.22,1.89,1.77,2.88,1,2,1.51,3,.87,2.09,1.23,3.17.67,2.15.91,3.21C130.47,56.59,130.53,56.84,130.58,57.1Z"/></clipPath><clipPath id="clip-path-3"><path class="cls-3" d="M91,19l.62,0c-.46,0-.92.06-1.38.09-.62.06-1.24.14-1.85.22l-.55,0c.62-.09,1.25-.16,1.87-.22Z"/></clipPath><clipPath id="clip-path-4"><path class="cls-3" d="M127.65,76.94l-1.71,2.2a24,24,0,0,0,1.8-2.67,25.68,25.68,0,0,0,3.38-10.86A29.45,29.45,0,0,0,131,59.5c-.14-1-.32-2.1-.57-3.17s-.55-2.13-.91-3.21S128.73,51,128.27,50s-1-2-1.51-3S125.62,45,125,44s-1.31-1.84-2-2.72a42.27,42.27,0,0,0-10-9,41,41,0,0,0-12.19-5.29c-1.06-.26-2.14-.48-3.22-.64s-2.17-.28-3.26-.35S92.09,26,91,26s-2.18.14-3.26.29-2.13.36-3.14.61a29.81,29.81,0,0,0-3,.91A27,27,0,0,0,78.92,29a25.88,25.88,0,0,0-2.52,1.46,24.45,24.45,0,0,0-5.9,5.42l1.71-2.2a24.45,24.45,0,0,1,5.9-5.42,23.92,23.92,0,0,1,2.52-1.45,24.89,24.89,0,0,1,2.74-1.19,27.36,27.36,0,0,1,2.95-.91,28.58,28.58,0,0,1,3.14-.61,29.67,29.67,0,0,1,3.26-.29c1.09,0,2.17,0,3.26,0s2.18.18,3.26.35,2.16.38,3.23.65a40.51,40.51,0,0,1,12.18,5.29,42,42,0,0,1,10,9c.71.88,1.38,1.79,2,2.72s1.22,1.9,1.77,2.88,1.06,2,1.51,3,.87,2.1,1.24,3.17a33,33,0,0,1,.9,3.22,29.73,29.73,0,0,1,.71,9.27,25.63,25.63,0,0,1-3.38,10.87A24.83,24.83,0,0,1,127.65,76.94Z"/></clipPath><clipPath id="clip-path-5"><path class="cls-3" d="M108.31,86.75l-.34,0-.28,0c.9-.05,1.81-.14,2.7-.26l.55,0A23.41,23.41,0,0,1,108.31,86.75Z"/></clipPath><clipPath id="clip-path-6"><path class="cls-3" d="M67.57,55.74l0-.14-.09-.43c-.16-.8-.28-1.58-.38-2.36a28.55,28.55,0,0,1-.24-3.15,23.77,23.77,0,0,1,.1-3.06,26,26,0,0,1,3.42-11,24.88,24.88,0,0,1,7.82-8.2,22.17,22.17,0,0,1,2.56-1.48,23.46,23.46,0,0,1,2.79-1.21,29.95,29.95,0,0,1,6.18-1.54,28.46,28.46,0,0,1,3.3-.29,30.62,30.62,0,0,1,3.32,0,38.32,38.32,0,0,1,6.58,1,41.51,41.51,0,0,1,12.37,5.37,43.08,43.08,0,0,1,10.18,9.11c.72.89,1.4,1.79,2,2.76a32.37,32.37,0,0,1,1.8,2.93,32.76,32.76,0,0,1,1.54,3.08,31.85,31.85,0,0,1,1.25,3.21,30.23,30.23,0,0,1,.92,3.26,29.54,29.54,0,0,1,.58,3.22,26.09,26.09,0,0,1,.23,3.14,25.68,25.68,0,0,1-.09,3.06,26.15,26.15,0,0,1-3.43,11,24.72,24.72,0,0,1-7.82,8.21,21.89,21.89,0,0,1-2.56,1.47A23.3,23.3,0,0,1,117.13,85a24.81,24.81,0,0,1-3,.92,26.27,26.27,0,0,1-3.2.62l-.55,0a31.33,31.33,0,0,0,3.15-.62,27.34,27.34,0,0,0,2.95-.9,27,27,0,0,0,2.74-1.2,23.92,23.92,0,0,0,2.52-1.45,24.25,24.25,0,0,0,7.7-8.08,25.63,25.63,0,0,0,3.38-10.87,30,30,0,0,0-.71-9.27,33,33,0,0,0-.9-3.22c-.37-1.07-.78-2.13-1.24-3.17s-1-2-1.51-3-1.14-1.94-1.77-2.88-1.31-1.84-2-2.72a42,42,0,0,0-10-9,40.51,40.51,0,0,0-12.18-5.29c-1.07-.27-2.15-.48-3.23-.65s-2.17-.28-3.26-.35-2.17-.07-3.26,0a29.67,29.67,0,0,0-3.26.29,28.58,28.58,0,0,0-3.14.61,27.36,27.36,0,0,0-2.95.91,24.89,24.89,0,0,0-2.74,1.19,23.92,23.92,0,0,0-2.52,1.45,24.25,24.25,0,0,0-7.7,8.08A25.63,25.63,0,0,0,67,47.23a29.45,29.45,0,0,0,.14,6.11C67.27,54.13,67.4,54.94,67.57,55.74Z"/></clipPath><clipPath id="clip-path-7"><path class="cls-3" d="M107.15,93.89l-.63,0-.47,0c-.61,0-1.24,0-1.86,0s-1.24,0-1.86-.07-1.24-.09-1.86-.15-1.24-.15-1.86-.25-1.23-.2-1.84-.32-1.23-.26-1.84-.41a46.35,46.35,0,0,1-13.9-6A48.25,48.25,0,0,1,69.59,76.5c-.4-.5-.79-1-1.18-1.53s-.75-1-1.11-1.57-.71-1.09-1-1.63-.66-1.11-1-1.66-.61-1.14-.9-1.71-.56-1.17-.82-1.75-.51-1.19-.75-1.79-.45-1.22-.66-1.82-.39-1.23-.57-1.84-.32-1.22-.46-1.83-.21-.93-.3-1.4h0c0-.09,0-.19-.05-.29.07.4.16.8.25,1.21.14.61.3,1.23.48,1.85s.36,1.24.57,1.86.44,1.24.67,1.85.49,1.21.76,1.81.54,1.19.83,1.77.6,1.16.92,1.73.64,1.14,1,1.69.7,1.1,1.06,1.64.75,1.08,1.14,1.6.78,1,1.19,1.55A49.12,49.12,0,0,0,81.2,86.61a47,47,0,0,0,14.09,6.11c.62.16,1.23.29,1.86.42s1.24.23,1.87.33,1.25.18,1.88.24,1.25.12,1.88.16,1.26.06,1.89.07,1.25,0,1.88,0Z"/></clipPath><clipPath id="clip-path-8"><path class="cls-3" d="M132,80.3l-1.71,2.2a28,28,0,0,1-6.82,6.27c-.46.3-.93.59-1.42.87s-1,.55-1.49.81-1,.49-1.55.72-1.07.45-1.62.65-1.1.39-1.67.57-1.15.34-1.73.48-1.19.28-1.79.4-1.22.22-1.85.31-1.25.16-1.87.21-1.26.1-1.89.12-1.25,0-1.88,0-1.26,0-1.89-.07-1.26-.09-1.88-.16-1.26-.14-1.88-.24-1.25-.21-1.87-.33-1.24-.26-1.86-.42A47,47,0,0,1,81.2,86.61,49.12,49.12,0,0,1,69.61,76.24c-.41-.51-.81-1-1.19-1.55s-.77-1.06-1.14-1.6-.71-1.08-1.06-1.64-.67-1.12-1-1.69-.63-1.14-.92-1.73-.57-1.17-.83-1.77-.52-1.2-.76-1.81-.46-1.23-.67-1.85-.4-1.24-.57-1.86-.34-1.24-.48-1.85-.26-1.23-.37-1.84-.2-1.22-.28-1.82-.14-1.21-.18-1.8-.07-1.19-.09-1.78,0-1.18,0-1.76,0-1.16.1-1.73a29.57,29.57,0,0,1,3.9-12.55,27.79,27.79,0,0,1,2.09-3.08h0l1.71-2.19a28.11,28.11,0,0,0-2.09,3.07A29.75,29.75,0,0,0,61.91,46c0,.57-.08,1.14-.1,1.72s0,1.17,0,1.76.05,1.18.09,1.78.11,1.2.18,1.8.17,1.21.28,1.82.23,1.22.38,1.84.29,1.23.47,1.85.37,1.24.58,1.86.43,1.24.66,1.85.49,1.22.76,1.81.54,1.19.83,1.78.6,1.16.92,1.73.64,1.13,1,1.68.69,1.11,1.06,1.65.74,1.07,1.13,1.59.78,1,1.19,1.55a48.76,48.76,0,0,0,11.6,10.37A46.82,46.82,0,0,0,97,90.53c.62.15,1.24.29,1.86.41s1.24.24,1.87.33,1.25.18,1.88.25,1.25.12,1.88.15,1.26.06,1.89.07,1.26,0,1.88,0,1.26-.07,1.89-.12,1.25-.13,1.87-.22,1.24-.19,1.85-.31,1.2-.25,1.79-.39,1.16-.31,1.73-.49,1.13-.36,1.67-.56,1.09-.42,1.62-.65,1-.48,1.55-.73,1-.52,1.49-.8,1-.58,1.43-.88A28.13,28.13,0,0,0,132,80.3Z"/></clipPath><clipPath id="clip-path-9"><path class="cls-3" d="M137.33,54.87l.06.29.12.63c.11.61.2,1.22.28,1.82s.13,1.2.18,1.8.07,1.19.09,1.78,0,1.17,0,1.76-.05,1.15-.1,1.72a29.75,29.75,0,0,1-3.9,12.56,28.15,28.15,0,0,1-8.9,9.34c-.47.3-.94.6-1.43.88s-1,.54-1.49.8-1,.5-1.55.73-1.07.44-1.62.65-1.1.39-1.67.56-1.15.34-1.73.49-1.19.28-1.79.39-1.22.22-1.85.31-1.25.16-1.87.22-1.26.09-1.89.12-1.25,0-1.88,0-1.26,0-1.89-.07-1.26-.09-1.88-.15-1.26-.15-1.88-.25-1.25-.2-1.87-.33-1.24-.26-1.86-.41a46.82,46.82,0,0,1-14.08-6.12A48.76,48.76,0,0,1,71.32,74c-.41-.51-.8-1-1.19-1.55s-.77-1-1.13-1.59-.72-1.09-1.06-1.65-.68-1.11-1-1.68-.62-1.15-.92-1.73-.57-1.18-.83-1.78-.52-1.2-.76-1.81S64,61,63.78,60.4s-.41-1.24-.58-1.86-.33-1.24-.47-1.85-.27-1.23-.38-1.84-.2-1.21-.28-1.82-.13-1.2-.18-1.8-.07-1.19-.09-1.78,0-1.17,0-1.76,0-1.15.1-1.72a29.75,29.75,0,0,1,3.9-12.56,28.15,28.15,0,0,1,8.9-9.34c.47-.3.94-.6,1.43-.88s1-.54,1.49-.8,1-.5,1.55-.73,1.07-.44,1.62-.64,1.1-.4,1.67-.57,1.14-.34,1.73-.48,1.19-.28,1.79-.4,1.22-.22,1.85-.31l.55,0c-.61.09-1.23.18-1.82.3s-1.19.25-1.77.39-1.15.31-1.71.48-1.11.36-1.65.56-1.07.41-1.6.64-1,.47-1.53.72-1,.51-1.47.79-1,.56-1.4.87a27.64,27.64,0,0,0-8.79,9.22A29.24,29.24,0,0,0,62.8,45.58c0,.57-.07,1.15-.1,1.71s0,1.16,0,1.73.05,1.18.09,1.76.11,1.19.18,1.78.18,1.2.27,1.79.24,1.22.37,1.82.31,1.22.47,1.82.37,1.23.57,1.84.43,1.22.66,1.83.48,1.2.74,1.79.54,1.17.83,1.74.59,1.15.9,1.71.64,1.12,1,1.67.68,1.09,1,1.62.74,1.06,1.12,1.57.78,1,1.18,1.53A48.1,48.1,0,0,0,83.53,83.53a46.32,46.32,0,0,0,13.9,6c.61.15,1.23.28,1.83.41l1.85.33,1.85.24c.62.07,1.25.11,1.86.15s1.25.06,1.87.07,1.24,0,1.86,0,1.24-.07,1.86-.12l1.85-.21c.6-.1,1.22-.19,1.82-.31s1.19-.24,1.77-.39,1.14-.3,1.71-.48,1.11-.36,1.65-.56,1.07-.41,1.59-.64,1-.46,1.53-.71,1-.52,1.47-.8,1-.56,1.41-.86A27.71,27.71,0,0,0,134,76.44a29.34,29.34,0,0,0,3.86-12.39q.06-.86.09-1.71c0-.57,0-1.16,0-1.73s0-1.18-.09-1.76-.11-1.19-.17-1.77-.18-1.21-.28-1.8C137.39,55.14,137.36,55,137.33,54.87Z"/></clipPath></defs><g class="cls-4"><g id="Layer_2" data-name="Layer 2"><g class="cls-5"><ellipse class="cls-6" cx="101" cy="99.6" rx="101" ry="15.53"/></g><g class="cls-4"><g class="cls-4"><g class="cls-7"><g class="cls-4"><path class="cls-8" d="M128.88,78.81l-.83,1.07-.56.7.83-1.07c.19-.23.38-.46.56-.7"/><path class="cls-8" d="M128.32,79.51l-.83,1.07c-.31.36-.62.72-.95,1.07l.83-1.07c.33-.35.65-.71.95-1.07"/><path class="cls-9" d="M127.37,80.58l-.83,1.07c-.33.35-.66.69-1,1l.83-1.07c.35-.33.69-.67,1-1"/><path class="cls-10" d="M126.36,81.6l-.83,1.07-.92.83.84-1.07c.31-.27.61-.55.91-.83"/><path class="cls-10" d="M125.45,82.43l-.84,1.07c-.3.27-.61.52-.93.78l.83-1.07c.32-.25.63-.51.94-.78"/><path class="cls-10" d="M124.51,83.21l-.83,1.07-.81.61.83-1.07.81-.61"/><path class="cls-11" d="M123.7,83.82l-.83,1.07c-.28.2-.55.39-.84.58l.84-1.07c.28-.19.56-.38.83-.58"/><path class="cls-12" d="M122.87,84.4,122,85.47l-.76.49.84-1.07.76-.49"/><path class="cls-12" d="M122.11,84.89,121.27,86l-.74.45.83-1.07.75-.45"/><path class="cls-12" d="M121.36,85.34l-.83,1.07-.76.42.84-1.07.75-.42"/><path class="cls-13" d="M120.61,85.76l-.84,1.07c-.27.15-.56.29-.84.43l.83-1.06c.29-.14.57-.29.85-.44"/><path class="cls-14" d="M119.76,86.2l-.83,1.06-.87.42.83-1.07.87-.41"/><path class="cls-14" d="M118.89,86.61l-.83,1.07-1.2.51.83-1.07q.6-.24,1.2-.51"/><path class="cls-15" d="M117.69,87.12l-.83,1.07a30.9,30.9,0,0,1-3.25,1.07l.83-1.07a30.16,30.16,0,0,0,3.25-1.07"/><path class="cls-14" d="M114.44,88.19l-.83,1.07-1.29.32.84-1.07c.43-.1.86-.2,1.28-.32"/><path class="cls-14" d="M113.16,88.51l-.84,1.07-.44.09.83-1.06.45-.1"/><path class="cls-13" d="M112.71,88.61l-.83,1.06-.45.09.83-1.06.45-.09"/><path class="cls-12" d="M112.26,88.7l-.83,1.06-.46.09.83-1.07.46-.08"/><path class="cls-12" d="M111.8,88.78,111,89.85l-.46.08.83-1.07.46-.08"/><path class="cls-12" d="M111.34,88.86l-.83,1.07-.46.07.83-1.07.46-.07"/><path class="cls-11" d="M110.88,88.93,110.05,90l-.29,0-.1,0,.83-1.07.1,0,.29,0"/><path class="cls-10" d="M110.49,89l-.83,1.07-.27,0,.83-1.07.27,0"/><path class="cls-10" d="M110.22,89l-.83,1.07-.27,0,.84-1.07.26,0"/><path class="cls-10" d="M110,89.06l-.84,1.07-.26,0,.83-1.07.27,0"/><path class="cls-9" d="M109.69,89.09l-.83,1.07-.27,0,.83-1.07.27,0"/><path class="cls-8" d="M109.42,89.12l-.83,1.07-.27,0,.83-1.07.27,0"/><path class="cls-8" d="M109.15,89.14l-.83,1.07-.27,0,.84-1.07.26,0"/><path class="cls-16" d="M108.89,89.17l-.84,1.07-.27,0,.84-1.07.27,0"/><path class="cls-17" d="M108.62,89.19l-.84,1.07-.26,0,.83-1.07.27,0"/><path class="cls-17" d="M108.35,89.21l-.83,1.07-.27,0,.83-1.07.27,0"/><path class="cls-17" d="M108.08,89.23l-.83,1.07-.27,0,.84-1.07.26,0"/><path class="cls-18" d="M107.82,89.25,107,90.32h-.19l.83-1.07h.2"/><path class="cls-19" d="M107.62,89.26l-.83,1.07h-.2l.83-1.07h.2"/><path class="cls-19" d="M107.42,89.27l-.83,1.07h-.2l.84-1.07h.19"/><path class="cls-19" d="M107.23,89.28l-.84,1.07h-.19l.83-1.07h.2"/><path class="cls-20" d="M107,89.28l-.83,1.07H106l.83-1.07h.2"/><path class="cls-21" d="M106.83,89.29,106,90.36h-.2l.84-1.06h.19"/><path class="cls-21" d="M106.64,89.3l-.84,1.06h-.19l.83-1.07h.2"/><path class="cls-21" d="M106.44,89.3l-.83,1.07h-.2l.83-1.07h.2"/><path class="cls-22" d="M106.24,89.3l-.83,1.07h-.2l.84-1.07h.19"/><path class="cls-23" d="M106.05,89.3l-.84,1.07H105l.83-1.06h.2"/><path class="cls-23" d="M105.85,89.31,105,90.37h-.2l.83-1.06h.2"/><path class="cls-24" d="M105.65,89.31l-.83,1.06h-.2l.83-1.07h.2"/><path class="cls-25" d="M105.45,89.3l-.83,1.07h-.2l.84-1.07h.19"/><path class="cls-25" d="M105.26,89.3l-.84,1.07h-.19l.83-1.07h.2"/><path class="cls-25" d="M105.06,89.3l-.83,1.07h-.18l.84-1.07h.17"/><path class="cls-26" d="M104.89,89.29l-.84,1.07h-.17l.83-1.07h.18"/><path class="cls-27" d="M104.71,89.29l-.83,1.07h-.18l.84-1.07h.17"/><path class="cls-27" d="M104.54,89.28l-.84,1.07h-.17l.83-1.06h.18"/><path class="cls-27" d="M104.36,89.28l-.83,1.06h-.17l.83-1.07h.17"/><path class="cls-28" d="M104.19,89.27l-.83,1.07h-.18l.83-1.07h.18"/><path class="cls-29" d="M104,89.26l-.83,1.07H103l.83-1.07H104"/><path class="cls-29" d="M103.84,89.25,103,90.32h-.18l.84-1.07h.17"/><path class="cls-29" d="M103.67,89.24l-.84,1.07h-.17l.83-1.07h.18"/><path class="cls-30" d="M103.49,89.23l-.83,1.07h-.18l.84-1.07h.17"/><path class="cls-30" d="M103.32,89.22l-.84,1.07-.17,0,.83-1.06h.18"/><path class="cls-30" d="M103.14,89.21l-.83,1.06h-.17l.83-1.07.17,0"/><path class="cls-30" d="M103,89.19l-.83,1.07H102l.83-1.07H103"/><path class="cls-31" d="M102.79,89.18,102,90.25l-.17,0,.83-1.07.17,0"/><path class="cls-31" d="M102.62,89.16l-.83,1.07h-.18l.84-1.07h.17"/><path class="cls-31" d="M102.45,89.15l-.84,1.07-.17,0,.83-1.07.18,0"/><path class="cls-32" d="M102.27,89.13l-.83,1.07-.17,0,.83-1.07.17,0"/><path class="cls-33" d="M102.1,89.11l-.83,1.07-.18,0,.84-1.06h.17"/><path class="cls-33" d="M101.93,89.1l-.84,1.06-.17,0,.83-1.06.18,0"/><path class="cls-33" d="M101.75,89.08l-.83,1.06-.17,0,.83-1.06.17,0"/><path class="cls-34" d="M101.58,89.06l-.83,1.06-.18,0L101.4,89l.18,0"/><path class="cls-34" d="M101.4,89l-.83,1.06-.17,0,.83-1.07.17,0"/><path class="cls-34" d="M101.23,89l-.83,1.07-.17,0,.83-1.07.17,0"/><path class="cls-34" d="M101.06,89l-.83,1.07-.18,0,.83-1.07.18,0"/><path class="cls-35" d="M100.88,89,100.05,90l-.17,0,.83-1.07.17,0"/><path class="cls-35" d="M100.71,88.94,99.88,90l-.17,0,.83-1.07.17,0"/><path class="cls-35" d="M100.54,88.92,99.71,90l-.18,0,.83-1.07.18,0"/><path class="cls-35" d="M100.36,88.89,99.53,90l-.17,0,.83-1.07.17,0"/><path class="cls-35" d="M100.19,88.87l-.83,1.07-.17,0,.83-1.07.17,0"/><path class="cls-35" d="M100,88.84l-.83,1.07-.18,0,.84-1.07.17,0"/><path class="cls-35" d="M99.85,88.81,99,89.88l-.17,0,.83-1.07.18,0"/><path class="cls-36" d="M99.67,88.78l-.83,1.07-.18,0,.84-1.07.17,0"/><path class="cls-37" d="M99.5,88.75l-.84,1.07-.19,0,.83-1.07.2,0"/><path class="cls-37" d="M99.3,88.72l-.83,1.07-.19,0,.83-1.07.19,0"/><path class="cls-37" d="M99.11,88.68l-.83,1.07-.2,0,.83-1.07.2,0"/><path class="cls-38" d="M98.91,88.65l-.83,1.07-.19,0,.83-1.07.19,0"/><path class="cls-38" d="M98.72,88.61l-.83,1.07-.19,0,.83-1.07.19,0"/><path class="cls-38" d="M98.53,88.57l-.83,1.07-.2,0,.83-1.07.2,0"/><path class="cls-38" d="M98.33,88.53,97.5,89.6l-.19,0,.83-1.07.19,0"/><path class="cls-39" d="M98.14,88.49l-.83,1.07-.19,0L98,88.45l.19,0"/><path class="cls-39" d="M98,88.45l-.83,1.07-.2,0,.84-1.07.19,0"/><path class="cls-39" d="M97.76,88.41l-.84,1.07-.19,0,.83-1.07.2,0"/><path class="cls-40" d="M97.56,88.37l-.83,1.07-.19,0,.83-1.07.19.05"/><path class="cls-41" d="M97.37,88.32l-.83,1.07-.19,0,.83-1.07.19,0"/><path class="cls-41" d="M97.18,88.28l-.83,1.07-.2,0L97,88.23l.19,0"/><path class="cls-41" d="M97,88.23l-.84,1.07-.19,0,.83-1.06.2,0"/><path class="cls-42" d="M96.79,88.19,96,89.25l-.23,0,.83-1.07.23.06"/><path class="cls-42" d="M96.56,88.13l-.83,1.07-.24-.06.83-1.07.24.06"/><path class="cls-42" d="M96.32,88.07l-.83,1.07-.23-.07L96.09,88l.23.06"/><path class="cls-42" d="M96.09,88l-.83,1.06L95,89l.83-1.07.24.07"/><path class="cls-43" d="M95.85,87.94,95,89,94.79,89l.83-1.07.23.06"/><path class="cls-43" d="M95.62,87.88,94.79,89l-.24-.07.84-1.07.23.07"/><path class="cls-43" d="M95.39,87.81l-.84,1.07-.23-.07.83-1.06.24.06"/><path class="cls-43" d="M95.15,87.75l-.83,1.06-.23-.07.83-1.06.23.07"/><path class="cls-44" d="M94.92,87.68l-.83,1.06-.23-.07.83-1.06.23.07"/><path class="cls-44" d="M94.69,87.61l-.83,1.06-.24-.07.84-1.07.23.08"/><path class="cls-44" d="M94.46,87.53l-.84,1.07-.23-.07.83-1.07.24.07"/><path class="cls-45" d="M94.22,87.46l-.83,1.07-.27-.09L94,87.38l.26.08"/><path class="cls-46" d="M94,87.38l-.84,1.06-.3-.1.83-1.06.31.1"/><path class="cls-46" d="M93.65,87.28l-.83,1.06-.3-.1.83-1.07.3.11"/><path class="cls-46" d="M93.35,87.17l-.83,1.07-.31-.1.84-1.07.3.1"/><path class="cls-47" d="M93.05,87.07l-.84,1.07-.3-.11L92.74,87l.31.11"/><path class="cls-48" d="M92.74,87,91.91,88l-.3-.11.83-1.07.3.11"/><path class="cls-48" d="M92.44,86.85l-.83,1.07-.3-.11.83-1.07.3.11"/><path class="cls-48" d="M92.14,86.74l-.83,1.07-.3-.12.83-1.06.3.11"/><path class="cls-49" d="M91.84,86.63,91,87.69l-.3-.11.83-1.07.3.12"/><path class="cls-49" d="M91.54,86.51l-.83,1.07-.38-.15.83-1.07.38.15"/><path class="cls-50" d="M91.16,86.36l-.83,1.07-.41-.17.83-1.07.41.17"/><path class="cls-51" d="M90.75,86.19l-.83,1.07-.41-.18L90.34,86l.41.18"/><path class="cls-51" d="M90.34,86l-.83,1.07-.41-.18.83-1.06.41.17"/><path class="cls-50" d="M89.93,85.84,89.1,86.9l-.41-.18.83-1.07.41.19"/><path class="cls-52" d="M89.52,85.65l-.83,1.07-.41-.19.83-1.06.41.18"/><path class="cls-53" d="M89.11,85.47l-.83,1.06-.47-.22.84-1.07.46.23"/><path class="cls-53" d="M88.65,85.24l-.84,1.07L87.24,86,88.07,85l.58.28"/><path class="cls-53" d="M88.07,85,87.24,86l-.58-.29.83-1.07.58.29"/><path class="cls-53" d="M87.49,84.67l-.83,1.07-.57-.3.83-1.07.57.3"/><path class="cls-54" d="M86.92,84.37l-.83,1.07-.56-.31.83-1.07.56.31"/><path class="cls-54" d="M86.36,84.06l-.83,1.07c-.32-.17-.62-.35-.93-.53l.83-1.07.93.53"/><path class="cls-54" d="M85.43,83.53,84.6,84.6,83.66,84,84.5,83l.93.56"/><path class="cls-54" d="M84.5,83,83.66,84c-.55-.34-1.09-.69-1.62-1.06l.83-1.07c.53.37,1.08.72,1.63,1.06"/><path class="cls-55" d="M82.87,81.91,82,83c-.92-.62-1.81-1.28-2.67-2L80.2,80c.87.69,1.76,1.34,2.67,2"/><path class="cls-54" d="M80.2,80,79.37,81c-.6-.47-1.18-1-1.75-1.46l.84-1.07c.57.5,1.15,1,1.74,1.46"/><path class="cls-54" d="M78.46,78.49l-.84,1.07c-.39-.35-.79-.71-1.17-1.07l.83-1.07c.39.37.78.72,1.18,1.07"/><path class="cls-54" d="M77.28,77.42l-.83,1.07-.94-.91.84-1.07c.3.31.62.61.93.91"/><path class="cls-54" d="M76.35,76.51l-.84,1.07c-.29-.3-.59-.6-.87-.9l.83-1.07c.29.3.58.61.88.9"/><path class="cls-53" d="M75.47,75.61l-.83,1.07c-.27-.28-.52-.56-.78-.84l.83-1.07.78.84"/><path class="cls-53" d="M74.69,74.77l-.83,1.07-.7-.8L74,74c.22.27.46.53.69.8"/><path class="cls-53" d="M74,74,73.16,75l-.68-.82.84-1.07c.22.28.45.55.68.82"/><path class="cls-53" d="M73.32,73.15l-.84,1.07-.58-.74.83-1.07c.19.25.39.5.59.74"/><path class="cls-52" d="M72.73,72.41l-.83,1.07-.57-.74.83-1.07.57.74"/><path class="cls-50" d="M72.16,71.67l-.83,1.07c-.18-.25-.37-.5-.54-.76l.83-1.06.54.75"/><path class="cls-51" d="M71.62,70.92,70.79,72l-.5-.7.84-1.07.49.71"/><path class="cls-51" d="M71.13,70.21l-.84,1.07-.46-.71.83-1.07c.15.24.31.47.47.71"/><path class="cls-50" d="M70.66,69.5l-.83,1.07c-.16-.24-.31-.48-.46-.72l.83-1.06.46.71"/><path class="cls-49" d="M70.2,68.79l-.83,1.06c-.14-.23-.29-.46-.43-.7l.84-1.07.42.71"/><path class="cls-49" d="M69.78,68.08l-.84,1.07-.39-.69.83-1.07c.13.23.26.46.4.69"/><path class="cls-48" d="M69.38,67.39l-.83,1.07c-.14-.23-.26-.46-.39-.69L69,66.7l.39.69"/><path class="cls-48" d="M69,66.7l-.83,1.07-.37-.71L68.62,66l.37.7"/><path class="cls-48" d="M68.62,66l-.83,1.06c-.12-.22-.23-.45-.35-.69l.83-1.06.35.69"/><path class="cls-47" d="M68.27,65.31l-.83,1.06-.33-.69.83-1.07.33.7"/><path class="cls-46" d="M67.94,64.61l-.83,1.07c-.11-.23-.21-.46-.32-.7l.83-1.07c.11.24.21.47.32.7"/><path class="cls-46" d="M67.62,63.91,66.79,65l-.3-.7.83-1.07.3.7"/><path class="cls-46" d="M67.32,63.21l-.83,1.07c-.1-.24-.2-.47-.29-.71L67,62.5c.09.24.19.48.29.71"/><path class="cls-45" d="M67,62.5l-.83,1.07c-.1-.24-.19-.47-.28-.71l.84-1.07c.08.24.18.48.27.71"/><path class="cls-44" d="M66.76,61.79l-.84,1.07-.26-.72.83-1.07.27.72"/><path class="cls-44" d="M66.49,61.07l-.83,1.07-.18-.52a1.72,1.72,0,0,0-.07-.21l.84-1.07.06.21.18.52"/><path class="cls-44" d="M66.25,60.34l-.84,1.07c-.08-.25-.16-.5-.23-.74L66,59.6c.08.24.15.49.24.74"/><path class="cls-43" d="M66,59.6l-.83,1.07c-.08-.25-.15-.5-.22-.74l.83-1.07c.07.24.14.49.22.74"/><path class="cls-43" d="M65.79,58.86,65,59.93c-.07-.25-.14-.5-.2-.74l.83-1.07c.06.24.13.49.2.74"/><path class="cls-43" d="M65.59,58.12l-.83,1.07c-.07-.26-.13-.51-.19-.77l.83-1.06c.06.25.12.5.19.76"/><path class="cls-43" d="M65.4,57.36l-.83,1.06-.18-.77.84-1.07c0,.26.11.52.17.78"/><path class="cls-42" d="M65.23,56.58l-.84,1.07-.15-.77.83-1.07c.05.25.1.51.16.77"/><path class="cls-42" d="M65.07,55.81l-.83,1.07c0-.26-.1-.52-.14-.78L64.93,55c0,.26.09.52.14.78"/><path class="cls-42" d="M64.93,55,64.1,56.1c0-.28-.09-.56-.13-.84l.84-1.07.12.84"/><path class="cls-42" d="M64.81,54.19,64,55.26c0-.28-.07-.55-.1-.83l.83-1.07c0,.28.07.55.11.83"/><path class="cls-41" d="M64.7,53.36l-.83,1.07c0-.28-.06-.55-.08-.83l.83-1.07c0,.28,0,.55.08.83"/><path class="cls-41" d="M64.62,52.53l-.83,1.07c0-.31,0-.61-.07-.92l.83-1.07c0,.31,0,.61.07.92"/><path class="cls-41" d="M64.55,51.61l-.83,1.07c0-.31,0-.62,0-.93l.83-1.06c0,.3,0,.61,0,.92"/><path class="cls-40" d="M64.51,50.69l-.83,1.06c0-.31,0-.62,0-.93l.83-1.07c0,.31,0,.62,0,.94"/><path class="cls-39" d="M64.5,49.75l-.83,1.07c0-.36,0-.72,0-1.08l.83-1.07c0,.36,0,.72,0,1.08"/><path class="cls-39" d="M64.52,48.67l-.83,1.07c0-.35,0-.71.06-1.06l.83-1.07c0,.35,0,.71-.06,1.06"/><path class="cls-39" d="M64.58,47.61l-.83,1.07c0-.42.07-.83.11-1.24l.84-1.07c0,.41-.09.82-.12,1.24"/><path class="cls-38" d="M64.7,46.37l-.84,1.07c0-.44.11-.88.18-1.31l.84-1.06c-.07.43-.13.86-.18,1.3"/><path class="cls-38" d="M64.88,45.07,64,46.13c.1-.56.2-1.11.33-1.66l.83-1.07c-.12.55-.23,1.11-.32,1.67"/><path class="cls-38" d="M65.2,43.4l-.83,1.07c.16-.73.36-1.45.58-2.16l.83-1.07c-.22.71-.42,1.43-.58,2.16"/><path class="cls-38" d="M65.78,41.24,65,42.31a26.28,26.28,0,0,1,3.18-6.7L69,34.54a26.28,26.28,0,0,0-3.18,6.7"/><path class="cls-38" d="M69,34.54l-.83,1.07c.36-.54.74-1.07,1.14-1.58L70.1,33c-.4.51-.78,1-1.14,1.58"/></g></g></g><ellipse class="cls-56" cx="99.49" cy="55.89" rx="30.84" ry="37.27" transform="translate(-5.74 100.02) rotate(-52.08)"/></g><g class="cls-4"><g class="cls-4"><g class="cls-57"><g class="cls-4"><path class="cls-58" d="M130.59,57.16l.1.5c-.05-.28-.12-.56-.18-.84a30.32,30.32,0,0,0-.93-3.26,29.8,29.8,0,0,0-1.25-3.22c-.46-1.07-1-2.07-1.53-3.07s-1.16-2-1.8-2.93l-.18-.27v-.29L125,44q.95,1.4,1.77,2.88c.55,1,1,2,1.51,3s.87,2.09,1.23,3.17.67,2.15.91,3.21c.07.28.12.55.18.83"/><path class="cls-58" d="M124.81,43.78v.29c-.29-.43-.59-.84-.89-1.24v-.27c.3.4.59.8.88,1.22"/><path class="cls-59" d="M123.93,42.56v.27c-.32-.42-.64-.84-1-1.25l0,0,0-.26,0,0c.33.41.65.82,1,1.24"/><path class="cls-60" d="M123,41.29l0,.26c-.24-.3-.49-.59-.74-.88l0-.25.73.87"/><path class="cls-60" d="M122.22,40.42l0,.25c-.22-.26-.44-.52-.67-.77l0-.24c.23.25.45.51.66.76"/><path class="cls-61" d="M121.56,39.66l0,.24c-.2-.23-.41-.45-.62-.68l0-.22.61.66"/><path class="cls-61" d="M121,39l0,.22-.59-.61.06-.21.58.6"/><path class="cls-62" d="M120.37,38.4l-.06.21-.55-.56.07-.2.54.55"/><path class="cls-62" d="M119.83,37.85l-.07.2-.53-.51.07-.2.53.51"/><path class="cls-62" d="M119.3,37.34l-.07.2-.51-.48.08-.19.5.47"/><path class="cls-62" d="M118.8,36.87l-.08.19-.49-.44.09-.19.48.44"/><path class="cls-63" d="M118.32,36.43l-.09.19-.48-.42.1-.18.47.41"/><path class="cls-63" d="M117.85,36l-.1.18-.46-.4.11-.17.45.39"/><path class="cls-63" d="M117.4,35.63l-.11.17-.45-.37.11-.17.45.37"/><path class="cls-64" d="M117,35.26l-.11.17-.44-.36.12-.16.43.35"/><path class="cls-65" d="M116.52,34.91l-.12.16-.43-.34.13-.15.42.33"/><path class="cls-65" d="M116.1,34.58l-.13.15-.42-.32.13-.15.42.32"/><path class="cls-65" d="M115.68,34.26l-.13.15-.41-.31.13-.15.41.31"/><path class="cls-66" d="M115.27,34l-.13.15-.41-.3.14-.14.4.29"/><path class="cls-67" d="M114.87,33.66l-.14.14-.4-.28.15-.14.39.28"/><path class="cls-67" d="M114.48,33.38l-.15.14-.39-.28.15-.13.39.27"/><path class="cls-68" d="M114.09,33.11l-.15.13-.39-.26.16-.13.38.26"/><path class="cls-69" d="M113.71,32.85l-.16.13-.38-.25.17-.13.37.25"/><path class="cls-69" d="M113.34,32.6l-.17.13-.38-.25.17-.12.38.24"/><path class="cls-70" d="M113,32.36l-.17.12h0l-.35-.22.18-.12.34.21,0,0"/><path class="cls-40" d="M112.6,32.13l-.18.12-.36-.23.18-.12.36.23"/><path class="cls-40" d="M112.24,31.9l-.18.12-.37-.22.19-.12.36.22"/><path class="cls-71" d="M111.88,31.68l-.19.12-.36-.22.2-.11.35.21"/><path class="cls-72" d="M111.53,31.47l-.2.11-.35-.2.19-.11.36.2"/><path class="cls-72" d="M111.17,31.27l-.19.11-.35-.2.2-.11.34.2"/><path class="cls-73" d="M110.83,31.07l-.2.11-.35-.2.21-.1.34.19"/><path class="cls-73" d="M110.49,30.88l-.21.1-.35-.18.22-.1.34.18"/><path class="cls-74" d="M110.15,30.7l-.22.1-.34-.19.22-.09.34.18"/><path class="cls-75" d="M109.81,30.52l-.22.09-.34-.17.22-.1.34.18"/><path class="cls-75" d="M109.47,30.34l-.22.1-.33-.17.23-.1.32.17"/><path class="cls-36" d="M109.15,30.17l-.23.1-.34-.17.24-.09.33.16"/><path class="cls-36" d="M108.82,30l-.24.09-.33-.16.24-.09.33.16"/><path class="cls-76" d="M108.49,29.85l-.24.09-.33-.16.25-.08.32.15"/><path class="cls-77" d="M108.17,29.7l-.25.08-.32-.15.25-.08.32.15"/><path class="cls-77" d="M107.85,29.55l-.25.08-.33-.15.26-.08.32.15"/><path class="cls-78" d="M107.53,29.4l-.26.08-.32-.14.26-.08.32.14"/><path class="cls-78" d="M107.21,29.26l-.26.08-.32-.14.26-.08.32.14"/><path class="cls-34" d="M106.89,29.12l-.26.08-.32-.14.27-.07.31.13"/><path class="cls-79" d="M106.58,29l-.27.07-.31-.13.27-.07.31.13"/><path class="cls-79" d="M106.27,28.86l-.27.07-.32-.13.28-.06.31.12"/><path class="cls-33" d="M106,28.74l-.28.06-.31-.12.28-.07.31.13"/><path class="cls-32" d="M105.65,28.61l-.28.07-.31-.12.29-.07.3.12"/><path class="cls-32" d="M105.35,28.49l-.29.07-.31-.12.29-.06.31.11"/><path class="cls-31" d="M105,28.38l-.29.06-.31-.11.3-.06.3.11"/><path class="cls-80" d="M104.74,28.27l-.3.06-.3-.11.3-.06.3.11"/><path class="cls-80" d="M104.44,28.16l-.3.06-.31-.11.3-.06.31.11"/><path class="cls-80" d="M104.13,28.05l-.3.06-.3-.1.31-.06.29.1"/><path class="cls-81" d="M103.84,28l-.31.06-.3-.1.31-.06.3.1"/><path class="cls-82" d="M103.54,27.85l-.31.06-.31-.1.32,0,.3.09"/><path class="cls-82" d="M103.24,27.76l-.32,0-.3-.09.32-.06.3.1"/><path class="cls-28" d="M102.94,27.66l-.32.06-.3-.09.33-.06.29.09"/><path class="cls-83" d="M102.65,27.57l-.33.06-.29-.09.33-.05.29.08"/><path class="cls-28" d="M102.36,27.49l-.33.05-.3-.09.33-.05.3.09"/><path class="cls-28" d="M102.06,27.4l-.33.05-.3-.08.34-.05.29.08"/><path class="cls-84" d="M101.77,27.32l-.34.05-.29-.08.34-.05.29.08"/><path class="cls-84" d="M101.48,27.24l-.34.05-.3-.08.35-.05.29.08"/><path class="cls-84" d="M101.19,27.16l-.35.05-.29-.07.35-.05.29.07"/><path class="cls-25" d="M100.9,27.09l-.35.05-.15,0-.17,0,.36,0,.16,0,.15,0"/><path class="cls-25" d="M100.59,27l-.36,0-.3-.08.36,0,.3.07"/><path class="cls-25" d="M100.29,26.94l-.36,0-.29-.06.36,0,.29.06"/><path class="cls-23" d="M100,26.88l-.36,0-.27-.06.37,0,.26.06"/><path class="cls-23" d="M99.74,26.82l-.37,0-.26-.06.37,0,.26.06"/><path class="cls-23" d="M99.48,26.76l-.37,0-.25-.05.37,0,.25.05"/><path class="cls-85" d="M99.23,26.71l-.37,0-.25-.05.37,0,.25.05"/><path class="cls-86" d="M99,26.66l-.37,0-.25-.05.37,0,.25.05"/><path class="cls-86" d="M98.73,26.61l-.37,0-.26,0,.39,0,.24,0"/><path class="cls-86" d="M98.49,26.57l-.39,0-.25,0,.38,0,.26.05"/><path class="cls-87" d="M98.23,26.52l-.38,0-.27,0,.39,0,.26,0"/><path class="cls-87" d="M98,26.48l-.39,0-.28,0,.4,0,.27,0"/><path class="cls-87" d="M97.7,26.44l-.4,0h0l.4,0h0"/><path class="cls-87" d="M97.67,26.43l-.4,0-.15,0h-.06l.4,0h.07l.14,0"/><path class="cls-87" d="M97.46,26.4l-.4,0-.32,0,.41,0,.31,0"/><path class="cls-16" d="M97.15,26.35l-.41,0-.28,0,.41,0,.28,0"/><path class="cls-16" d="M96.87,26.31l-.41,0-.27,0,.41,0,.27,0"/><path class="cls-16" d="M96.6,26.28l-.41,0-.26,0,.41,0,.26,0"/><path class="cls-88" d="M96.34,26.25l-.41,0-.26,0,.42,0,.25,0"/><path class="cls-9" d="M96.09,26.22l-.42,0-.25,0,.43,0,.24,0"/><path class="cls-9" d="M95.85,26.19l-.43,0-.25,0,.43,0,.25,0"/><path class="cls-9" d="M95.6,26.17l-.43,0-.25,0,.43,0,.25,0"/><path class="cls-10" d="M95.35,26.14l-.43,0-.25,0,.43,0,.25,0"/><path class="cls-10" d="M95.1,26.12l-.43,0-.27,0,.44,0,.26,0"/><path class="cls-11" d="M94.84,26.1l-.44,0h-.27l.44,0,.27,0"/><path class="cls-12" d="M94.57,26.08l-.44,0-.31,0h-.24l.46,0h.23l.3,0"/><path class="cls-12" d="M94,26.05l-.46,0-.3,0,.46,0,.3,0"/><path class="cls-13" d="M93.74,26l-.46,0H93l.46,0h.28"/><path class="cls-13" d="M93.46,26l-.46,0h-.26l.46,0h.26"/><path class="cls-89" d="M93.2,26l-.46,0h-.26L93,26h.25"/><path class="cls-89" d="M93,26l-.47,0h-.26l.48,0H93"/><path class="cls-15" d="M92.7,26l-.48,0H92l.48,0h.25"/><path class="cls-90" d="M92.45,26,92,26h-.25l.47,0h.26"/><path class="cls-90" d="M92.19,26l-.47,0h-.26l.48,0h.25"/><path class="cls-91" d="M91.94,26l-.48,0h-.27l.49,0h.26"/><path class="cls-91" d="M91.68,26l-.49,0h-.28l.49,0h.28"/><path class="cls-92" d="M91.4,26l-.49,0h-.3l.5,0h.29"/><path class="cls-93" d="M91.11,26l-.5,0H90.5l-.45,0,.51,0L91,26h.1"/><path class="cls-93" d="M90.56,26l-.51,0h-.21l.51,0,.21,0"/></g></g></g><g class="cls-4"><g class="cls-94"><g class="cls-4"><path class="cls-11" d="M88.39,19.23l-.55,0h.09l.55,0-.09,0"/><path class="cls-12" d="M88.48,19.21l-.55,0,.4-.06.54,0-.39.05"/><path class="cls-11" d="M88.87,19.16l-.54,0,.62-.07.53,0-.61.07"/><path class="cls-10" d="M89.48,19.09l-.53,0,.42,0,.53,0-.42,0"/><path class="cls-10" d="M89.9,19.05l-.53,0,.32,0,.52,0-.31,0"/><path class="cls-9" d="M90.21,19l-.52,0h.19l.52,0h-.19"/><path class="cls-10" d="M90.4,19l-.52,0,.25,0,.52,0-.25,0"/><path class="cls-9" d="M90.65,19l-.52,0,.68-.05.51,0-.67,0"/><path class="cls-9" d="M91.32,18.94l-.51,0h.3l.51,0-.3,0"/></g></g></g><g class="cls-4"><g class="cls-95"><g class="cls-4"><path class="cls-79" d="M127.65,76.94l-1.71,2.2c.26-.34.51-.68.76-1l1.71-2.2c-.25.35-.5.69-.76,1"/><path class="cls-79" d="M128.41,75.91l-1.71,2.2c.37-.53.71-1.08,1-1.64a24.75,24.75,0,0,0,2.44-5.71l1.71-2.2a24.83,24.83,0,0,1-2.44,5.72c-.32.55-.67,1.1-1,1.63"/><path class="cls-79" d="M131.89,68.56l-1.71,2.2c.18-.63.34-1.27.47-1.92l1.71-2.19c-.13.65-.29,1.28-.47,1.91"/><path class="cls-34" d="M132.36,66.65l-1.71,2.19c.1-.49.19-1,.27-1.49l1.71-2.19c-.08.5-.16,1-.27,1.49"/><path class="cls-78" d="M132.63,65.16l-1.71,2.19c.06-.42.11-.84.16-1.27l1.71-2.2c0,.43-.1.85-.16,1.28"/><path class="cls-78" d="M132.79,63.88l-1.71,2.2c0-.15,0-.31,0-.47s0-.45,0-.67l1.71-2.2c0,.23,0,.45,0,.67s0,.32,0,.47"/><path class="cls-77" d="M132.88,62.74l-1.71,2.2c0-.35,0-.7,0-1l1.71-2.2c0,.35,0,.7,0,1.05"/><path class="cls-77" d="M132.92,61.69l-1.71,2.2q0-.49,0-1l1.72-2.19c0,.32,0,.65,0,1"/><path class="cls-76" d="M132.93,60.71l-1.72,2.19v-.3c0-.21,0-.42,0-.63l1.71-2.19c0,.2,0,.41,0,.62s0,.2,0,.31"/><path class="cls-36" d="M132.9,59.78,131.19,62c0-.29,0-.59-.05-.89l1.71-2.19c0,.29,0,.59.05.89"/><path class="cls-36" d="M132.85,58.89l-1.71,2.19c0-.28,0-.56-.08-.85l1.71-2.2c0,.29.06.57.08.86"/><path class="cls-75" d="M132.77,58l-1.71,2.2c0-.24-.05-.49-.08-.73l0-.1,1.72-2.19v.09c0,.25.06.49.08.73"/><path class="cls-75" d="M132.68,57.21,131,59.4c0-.26-.07-.53-.11-.8l1.71-2.2.12.81"/><path class="cls-74" d="M132.56,56.4l-1.71,2.2c0-.26-.08-.52-.13-.78l1.71-2.2c0,.26.09.52.13.78"/><path class="cls-73" d="M132.43,55.62l-1.71,2.2-.15-.77,1.71-2.2.15.77"/><path class="cls-73" d="M132.28,54.85l-1.71,2.2c0-.24-.1-.48-.16-.72v0l1.71-2.19v0c.06.23.11.47.16.71"/><path class="cls-72" d="M132.11,54.1l-1.71,2.19c-.05-.24-.11-.49-.18-.74l1.71-2.2q.1.38.18.75"/><path class="cls-72" d="M131.93,53.35l-1.71,2.2c-.06-.25-.13-.49-.2-.74l1.72-2.19c.07.24.13.49.19.73"/><path class="cls-71" d="M131.74,52.62,130,54.81q-.09-.36-.21-.72l1.71-2.2c.08.24.15.49.22.73"/><path class="cls-40" d="M131.52,51.89l-1.71,2.2c-.07-.24-.15-.48-.23-.72l1.72-2.2c.08.24.15.48.22.72"/><path class="cls-40" d="M131.3,51.17l-1.72,2.2a1.83,1.83,0,0,0-.08-.25c-.05-.16-.1-.31-.16-.47l1.71-2.2c.06.16.11.32.17.47a2.41,2.41,0,0,0,.08.25"/><path class="cls-70" d="M131.05,50.45l-1.71,2.2c-.08-.24-.17-.47-.25-.71l1.71-2.2c.09.24.17.47.25.71"/><path class="cls-69" d="M130.8,49.74l-1.71,2.2-.27-.7,1.71-2.19.27.69"/><path class="cls-69" d="M130.53,49.05l-1.71,2.19-.29-.69,1.71-2.2c.1.23.19.46.29.7"/><path class="cls-68" d="M130.24,48.35l-1.71,2.2c-.08-.2-.17-.4-.26-.6l0-.09,1.71-2.19,0,.08c.09.2.18.4.26.6"/><path class="cls-67" d="M129.94,47.67l-1.71,2.19c-.1-.23-.2-.45-.31-.68l1.71-2.2c.11.23.21.46.31.69"/><path class="cls-67" d="M129.63,47l-1.71,2.2-.33-.68,1.71-2.2.33.68"/><path class="cls-66" d="M129.3,46.3l-1.71,2.2c-.11-.23-.23-.46-.35-.68l1.71-2.2c.12.23.24.45.35.68"/><path class="cls-65" d="M129,45.62l-1.71,2.2-.36-.68,1.71-2.2c.12.23.25.45.36.68"/><path class="cls-65" d="M128.59,44.94l-1.71,2.2-.12-.22-.26-.46,1.71-2.2.26.46.12.22"/><path class="cls-65" d="M128.21,44.26l-1.71,2.2-.41-.69,1.72-2.2.4.69"/><path class="cls-64" d="M127.81,43.57l-1.72,2.2-.42-.69,1.71-2.19.43.68"/><path class="cls-63" d="M127.38,42.89l-1.71,2.19-.45-.69,1.71-2.2.45.7"/><path class="cls-63" d="M126.93,42.19l-1.71,2.2L125,44l-.25-.35,1.72-2.2.24.35.23.35"/><path class="cls-63" d="M126.46,41.49l-1.72,2.2-.5-.72L126,40.78l.51.71"/><path class="cls-62" d="M126,40.78,124.24,43l-.54-.72,1.71-2.2.54.73"/><path class="cls-62" d="M125.41,40.05l-1.71,2.2c-.19-.25-.38-.5-.58-.74l1.71-2.2c.2.24.39.49.58.74"/><path class="cls-62" d="M124.83,39.31l-1.71,2.2-.15-.19-.47-.58,1.71-2.19.47.57.15.19"/><path class="cls-62" d="M124.21,38.55l-1.71,2.19-.68-.78,1.71-2.2c.23.26.46.52.68.79"/><path class="cls-61" d="M123.53,37.76,121.82,40c-.24-.28-.49-.55-.74-.82l1.71-2.2c.25.27.5.54.74.82"/><path class="cls-61" d="M122.79,36.94l-1.71,2.2-.82-.86L122,36.09c.28.28.55.56.82.85"/><path class="cls-60" d="M122,36.09l-1.71,2.19-.92-.91,1.71-2.2c.31.3.62.61.92.92"/><path class="cls-60" d="M121.05,35.17l-1.71,2.2-1.08-1,1.71-2.2,1.08,1"/><path class="cls-59" d="M120,34.18l-1.71,2.2c-.44-.39-.88-.77-1.33-1.14l1.71-2.19c.45.37.9.74,1.33,1.13"/><path class="cls-58" d="M118.64,33.05l-1.71,2.19a42.61,42.61,0,0,0-3.88-2.82l1.71-2.2a41.36,41.36,0,0,1,3.88,2.83"/><path class="cls-59" d="M114.76,30.22l-1.71,2.2-.11-.08-1.21-.75,1.71-2.2,1.21.76.11.07"/><path class="cls-60" d="M113.44,29.39l-1.71,2.2-1-.55,1.72-2.2,1,.55"/><path class="cls-60" d="M112.49,28.84,110.77,31l-.81-.45,1.71-2.19.82.44"/><path class="cls-61" d="M111.67,28.4,110,30.59l-.75-.38,1.71-2.2.75.39"/><path class="cls-61" d="M110.92,28l-1.71,2.2-.7-.35,1.71-2.2.7.35"/><path class="cls-62" d="M110.22,27.66l-1.71,2.2-.66-.31,1.71-2.2.66.31"/><path class="cls-62" d="M109.56,27.35l-1.71,2.2-.62-.28,1.71-2.2.62.28"/><path class="cls-62" d="M108.94,27.07l-1.71,2.2-.6-.26,1.71-2.2.6.26"/><path class="cls-62" d="M108.34,26.81,106.63,29l-.58-.24,1.71-2.19.58.23"/><path class="cls-63" d="M107.76,26.58l-1.71,2.19-.55-.22,1.71-2.19.55.22"/><path class="cls-63" d="M107.21,26.36l-1.71,2.19-.53-.2,1.71-2.2.53.21"/><path class="cls-63" d="M106.68,26.15,105,28.35l-.52-.19L106.16,26l.52.18"/><path class="cls-64" d="M106.16,26l-1.71,2.19L104,28l1.71-2.2.5.18"/><path class="cls-65" d="M105.66,25.79,104,28l-.49-.16,1.72-2.2.48.16"/><path class="cls-65" d="M105.18,25.63l-1.72,2.2-.47-.15,1.71-2.2.48.15"/><path class="cls-65" d="M104.7,25.48,103,27.68l-.46-.14,1.71-2.2.46.14"/><path class="cls-66" d="M104.24,25.34l-1.71,2.2-.46-.14,1.72-2.19.45.13"/><path class="cls-67" d="M103.79,25.21l-1.72,2.19-.44-.12,1.71-2.2.45.13"/><path class="cls-67" d="M103.34,25.08l-1.71,2.2-.43-.11,1.71-2.2.43.11"/><path class="cls-68" d="M102.91,25l-1.71,2.2-.43-.11,1.71-2.2.43.11"/><path class="cls-69" d="M102.48,24.86l-1.71,2.2h0l-.4-.09,1.71-2.2.41.1h0"/><path class="cls-69" d="M102.06,24.76,100.35,27l-.42-.1,1.71-2.2.42.1"/><path class="cls-70" d="M101.64,24.66l-1.71,2.2-.41-.09,1.72-2.19.4.08"/><path class="cls-40" d="M101.24,24.58l-1.72,2.19-.4-.08,1.71-2.2.41.09"/><path class="cls-40" d="M100.83,24.49l-1.71,2.2-.4-.08,1.71-2.19.4.07"/><path class="cls-71" d="M100.43,24.42l-1.71,2.19-.39-.07,1.71-2.2.39.08"/><path class="cls-72" d="M100,24.34l-1.71,2.2-.39-.07,1.71-2.19.39.06"/><path class="cls-72" d="M99.65,24.28l-1.71,2.19-.38-.06,1.71-2.19.38.06"/><path class="cls-73" d="M99.27,24.22l-1.71,2.19h0l-.35-.05,1.71-2.2.35.05h0"/><path class="cls-73" d="M98.89,24.16l-1.71,2.2-.38-.06,1.71-2.19.38.05"/><path class="cls-74" d="M98.51,24.11,96.8,26.3l-.38,0,1.72-2.2.37.05"/><path class="cls-75" d="M98.14,24.06l-1.72,2.2-.37-.05L97.76,24l.38,0"/><path class="cls-75" d="M97.76,24l-1.71,2.19-.37,0L97.4,24l.36,0"/><path class="cls-36" d="M97.4,24l-1.72,2.19-.36,0L97,23.94l.37,0"/><path class="cls-36" d="M97,23.94l-1.71,2.2-.37,0,1.72-2.2.36,0"/><path class="cls-76" d="M96.67,23.91,95,26.11l-.36,0,1.71-2.2.37,0"/><path class="cls-77" d="M96.3,23.88l-1.71,2.2-.32,0h0l1.71-2.2h0l.32,0"/><path class="cls-77" d="M95.94,23.86l-1.71,2.2-.36,0,1.72-2.2.35,0"/><path class="cls-78" d="M95.59,23.84,93.87,26l-.35,0,1.71-2.19h.36"/><path class="cls-78" d="M95.23,23.83,93.52,26h-.36l1.71-2.19h.36"/><path class="cls-34" d="M94.87,23.82,93.16,26h-.35l1.71-2.2h.35"/><path class="cls-79" d="M94.52,23.81,92.81,26h-.36l1.72-2.2h.35"/><path class="cls-79" d="M94.17,23.8,92.45,26H92.1l1.71-2.2h.36"/><path class="cls-33" d="M93.81,23.8,92.1,26h-.35l1.71-2.19h.35"/><path class="cls-32" d="M93.46,23.81,91.75,26H91.4l1.71-2.2h.35"/><path class="cls-32" d="M93.11,23.81,91.4,26h-.35l1.71-2.19.35,0"/><path class="cls-31" d="M92.76,23.83,91.05,26h0l-.31,0,1.71-2.2h.35"/><path class="cls-80" d="M92.41,23.84,90.7,26l-.35,0,1.71-2.2.35,0"/><path class="cls-80" d="M92.06,23.86l-1.71,2.2-.35,0,1.71-2.2.35,0"/><path class="cls-80" d="M91.71,23.88,90,26.08l-.35,0,1.71-2.19.35,0"/><path class="cls-81" d="M91.36,23.91,89.65,26.1l-.35,0L91,23.94l.35,0"/><path class="cls-82" d="M91,23.94,89.3,26.13l-.35,0L90.66,24l.35,0"/><path class="cls-82" d="M90.66,24,89,26.17l-.36,0L90.31,24l.35,0"/><path class="cls-28" d="M90.31,24l-1.72,2.2-.35,0L90,24.05l.36,0"/><path class="cls-83" d="M90,24.05l-1.71,2.2-.35,0L89.6,24.1l.35-.05"/><path class="cls-28" d="M89.6,24.1l-1.71,2.19-.14,0-.22,0,1.71-2.2.22,0,.14,0"/><path class="cls-28" d="M89.24,24.15l-1.71,2.2-.35,0,1.71-2.2.35-.05"/><path class="cls-84" d="M88.89,24.2l-1.71,2.2-.36.06,1.72-2.2.35-.06"/><path class="cls-84" d="M88.54,24.26l-1.72,2.2-.35.06,1.71-2.2.36-.06"/><path class="cls-84" d="M88.18,24.32l-1.71,2.2-.36.07,1.72-2.2.35-.07"/><path class="cls-25" d="M87.83,24.39l-1.72,2.2-.35.07,1.71-2.2.36-.07"/><path class="cls-25" d="M87.47,24.46l-1.71,2.2-.36.08,1.71-2.2.36-.08"/><path class="cls-25" d="M87.11,24.54l-1.71,2.2-.35.08,1.71-2.2.35-.08"/><path class="cls-23" d="M86.76,24.62l-1.71,2.2-.36.08,1.71-2.19.36-.09"/><path class="cls-23" d="M86.4,24.71,84.69,26.9l-.08,0-.28.08L86,24.8l.28-.07.08,0"/><path class="cls-23" d="M86,24.8,84.33,27l-.36.09,1.71-2.2L86,24.8"/><path class="cls-85" d="M85.68,24.89,84,27.09l-.36.1L85.32,25l.36-.11"/><path class="cls-86" d="M85.32,25l-1.71,2.19-.37.11L85,25.1l.37-.1"/><path class="cls-86" d="M85,25.1l-1.71,2.2-.37.12,1.72-2.2L85,25.1"/><path class="cls-86" d="M84.59,25.22l-1.72,2.2-.37.12,1.72-2.2.37-.12"/><path class="cls-87" d="M84.22,25.34l-1.72,2.2-.37.12,1.71-2.19.38-.13"/><path class="cls-87" d="M83.84,25.47l-1.71,2.19-.37.14,1.71-2.2.37-.13"/><path class="cls-87" d="M83.47,25.6l-1.71,2.2-.1,0-.28.11,1.71-2.2.28-.1.1,0"/><path class="cls-16" d="M83.09,25.74l-1.71,2.2-.39.15,1.71-2.2.39-.15"/><path class="cls-16" d="M82.7,25.89,81,28.09l-.39.16,1.71-2.2.39-.16"/><path class="cls-16" d="M82.31,26.05l-1.71,2.2-.39.17,1.71-2.2.39-.17"/><path class="cls-88" d="M81.92,26.22l-1.71,2.2-.41.18,1.72-2.2.4-.18"/><path class="cls-9" d="M81.52,26.4,79.8,28.6l-.41.19,1.72-2.2.41-.19"/><path class="cls-9" d="M81.11,26.59l-1.72,2.2L79,29l1.71-2.2.42-.21"/><path class="cls-9" d="M80.69,26.8,79,29l-.06,0-.37.19L80.26,27l.37-.19.06,0"/><path class="cls-10" d="M80.26,27l-1.71,2.19-.44.24,1.71-2.2.44-.23"/><path class="cls-10" d="M79.82,27.25l-1.71,2.2-.45.25,1.71-2.2.45-.25"/><path class="cls-11" d="M79.37,27.5l-1.71,2.2L77.2,30l1.71-2.2.46-.28"/><path class="cls-12" d="M78.91,27.78,77.2,30c-.17.09-.33.19-.49.29l1.71-2.19.49-.3"/><path class="cls-12" d="M78.42,28.08l-1.71,2.19-.31.21-.2.13,1.71-2.2.2-.13.31-.2"/><path class="cls-13" d="M77.91,28.41l-1.71,2.2c-.18.12-.36.24-.53.37l1.71-2.2c.17-.13.35-.25.53-.37"/><path class="cls-13" d="M77.38,28.78,75.67,31c-.2.13-.39.27-.57.41l1.71-2.2.57-.41"/><path class="cls-89" d="M76.81,29.19l-1.71,2.2-.62.48,1.71-2.2.62-.48"/><path class="cls-89" d="M76.19,29.67l-1.71,2.2-.7.58,1.71-2.2.7-.58"/><path class="cls-15" d="M75.49,30.25l-1.71,2.2c-.28.24-.56.49-.83.75L74.67,31c.26-.26.54-.5.82-.75"/><path class="cls-90" d="M74.67,31,73,33.2c-.39.37-.78.76-1.15,1.16l1.71-2.19c.37-.4.76-.79,1.16-1.17"/><path class="cls-90" d="M73.51,32.17,71.8,34.36c-.45.5-.89,1-1.3,1.54l1.71-2.2c.41-.53.85-1,1.3-1.53"/></g></g></g><g class="cls-4"><g class="cls-96"><g class="cls-4"><path class="cls-9" d="M108.2,86.76l-.51,0,.28,0,.51,0-.28,0"/><path class="cls-9" d="M108.48,86.74l-.51,0,.37,0,.52,0-.38,0"/><path class="cls-10" d="M108.86,86.72l-.52,0,.37,0,.52,0-.37,0"/><path class="cls-10" d="M109.23,86.69l-.52,0,.4,0,.53,0-.41,0"/><path class="cls-11" d="M109.64,86.66l-.53,0,.5-.05.53,0-.5.06"/><path class="cls-12" d="M110.14,86.6l-.53,0,.78-.1.55,0-.8.11"/></g></g></g><g class="cls-4"><g class="cls-97"><g class="cls-4"><path class="cls-11" d="M110.94,86.49l-.55,0h0l.56,0h0"/><path class="cls-12" d="M111,86.49l-.56,0,.23,0,.56,0-.23,0"/><path class="cls-12" d="M111.21,86.46l-.56,0,.27,0,.57,0-.28,0"/><path class="cls-13" d="M111.49,86.42l-.57,0,.33-.06.58,0-.34.06"/><path class="cls-13" d="M111.83,86.36l-.58,0,.45-.08.58,0-.45.08"/><path class="cls-89" d="M112.28,86.28l-.58,0,.72-.14.58,0-.72.14"/><path class="cls-89" d="M113,86.14l-.58,0,.89-.2.6,0-.91.21"/><path class="cls-15" d="M113.91,85.93l-.6,0,.17,0,.59,0-.16,0"/><path class="cls-89" d="M114.07,85.89l-.59,0,.06,0h0l.6,0h0l-.07,0"/><path class="cls-15" d="M114.15,85.87l-.6,0,.22,0,.61,0-.23.06"/><path class="cls-90" d="M114.38,85.81l-.61,0,.26-.07.61,0-.26.06"/><path class="cls-90" d="M114.64,85.75l-.61,0,.32-.09.62,0-.33.09"/><path class="cls-91" d="M115,85.66l-.62,0,.44-.13.62,0-.44.13"/><path class="cls-91" d="M115.41,85.53l-.62,0,.73-.23.63,0-.74.23"/><path class="cls-92" d="M116.15,85.3l-.63,0q.44-.14.87-.3L117,85l-.88.32"/><path class="cls-93" d="M117,85l-.64.06.1,0,.26-.1.65-.06-.27.1-.1,0"/><path class="cls-93" d="M117.4,84.85l-.65.06.27-.11.65,0-.27.1"/><path class="cls-98" d="M117.67,84.75l-.65,0,.34-.13.66-.06-.35.14"/><path class="cls-99" d="M118,84.61l-.66.06.53-.23.67-.06-.54.23"/><path class="cls-99" d="M118.56,84.38l-.67.06,1-.44.68-.07c-.32.16-.64.31-1,.45"/><path class="cls-100" d="M119.53,83.93l-.68.07.38-.19a.56.56,0,0,0,.17-.09l.69-.07-.18.09-.38.19"/><path class="cls-101" d="M120.09,83.65l-.69.07.25-.12.7-.08-.26.13"/><path class="cls-101" d="M120.35,83.52l-.7.08.32-.18.71-.07-.33.17"/><path class="cls-102" d="M120.68,83.35l-.71.07.54-.29.71-.09-.54.31"/><path class="cls-103" d="M121.22,83l-.71.09c.37-.22.73-.44,1.08-.67l.72-.09c-.36.23-.72.46-1.09.67"/><path class="cls-102" d="M122.31,82.37l-.72.09.16-.1.44-.29.73-.11-.45.31-.16.1"/><path class="cls-104" d="M122.92,82l-.73.11.57-.41.74-.1-.58.4"/><path class="cls-105" d="M123.5,81.56l-.74.1.59-.44.75-.11-.6.45"/><path class="cls-105" d="M124.1,81.11l-.75.11.6-.48.76-.12-.61.49"/><path class="cls-105" d="M124.71,80.62l-.76.12.63-.54.77-.13-.64.55"/><path class="cls-106" d="M125.35,80.07l-.77.13.66-.6.77-.14c-.21.21-.44.41-.66.61"/><path class="cls-107" d="M126,79.46l-.77.14c.24-.23.47-.46.7-.7l.79-.15c-.23.24-.47.48-.72.71"/><path class="cls-107" d="M126.73,78.75l-.79.15c.26-.27.52-.54.77-.83l.79-.16c-.25.29-.51.57-.77.84"/><path class="cls-108" d="M127.5,77.91l-.79.16c.3-.33.58-.68.86-1l.81-.17c-.28.36-.57.71-.88,1"/><path class="cls-108" d="M128.38,76.86l-.81.17c.39-.49.77-1,1.12-1.53l.82-.2c-.35.53-.73,1-1.13,1.56"/><path class="cls-108" d="M129.51,75.3l-.82.2c.26-.4.52-.81.76-1.22a25.11,25.11,0,0,0,2-4.27l.86-.28a24.68,24.68,0,0,1-2,4.33c-.25.42-.51.83-.78,1.24"/><path class="cls-108" d="M132.29,69.73l-.86.28c.21-.59.4-1.2.56-1.82l.88-.3c-.17.62-.36,1.24-.58,1.84"/><path class="cls-108" d="M132.87,67.89l-.88.3c.12-.44.23-.88.33-1.33l.88-.33c-.1.46-.21.91-.33,1.36"/><path class="cls-107" d="M133.2,66.53l-.88.33c.08-.37.15-.75.22-1.12l.88-.35c-.07.38-.14.76-.22,1.14"/><path class="cls-107" d="M133.42,65.39l-.88.35.15-1,.88-.36c0,.34-.09.67-.15,1"/><path class="cls-106" d="M133.57,64.39l-.88.36c0-.3.07-.6.1-.9l.89-.37c0,.3-.07.61-.11.91"/><path class="cls-105" d="M133.68,63.48l-.89.37c0-.14,0-.29,0-.44l.06-.79.89-.39-.06.8c0,.15,0,.3,0,.45"/><path class="cls-105" d="M133.78,62.23l-.89.39c0-.39,0-.79,0-1.2l.89-.4c0,.41,0,.81,0,1.21"/><path class="cls-105" d="M133.82,61l-.89.4V61l.89-.41a3.84,3.84,0,0,1,0,.48"/><path class="cls-104" d="M133.82,60.54l-.89.41v-.32l.89-.42v.33"/><path class="cls-102" d="M133.82,60.21l-.89.42a1.77,1.77,0,0,1,0-.23c0-.15,0-.3,0-.45l.89-.44c0,.16,0,.31,0,.46s0,.16,0,.24"/><path class="cls-103" d="M133.8,59.51l-.89.44c0-.4,0-.79-.07-1.19l.89-.45c0,.4.05.8.07,1.2"/><path class="cls-102" d="M133.73,58.31l-.89.45c0-.2,0-.39-.05-.59l.89-.45c0,.2,0,.4,0,.59"/><path class="cls-101" d="M133.68,57.72l-.89.45c0-.12,0-.25,0-.37l.89-.46c0,.13,0,.25,0,.38"/><path class="cls-101" d="M133.64,57.34l-.89.46a2.89,2.89,0,0,0,0-.29l.89-.47c0,.1,0,.2,0,.3"/><path class="cls-100" d="M133.6,57l-.89.47a1.49,1.49,0,0,0,0-.21l-.06-.42.89-.48.06.43a1.49,1.49,0,0,1,0,.21"/><path class="cls-99" d="M133.52,56.4l-.89.48c0-.34-.1-.67-.16-1l.89-.49c.06.34.11.68.16,1"/><path class="cls-99" d="M133.36,55.38l-.89.49c0-.21-.07-.42-.11-.63l.89-.5c0,.22.08.43.11.64"/><path class="cls-98" d="M133.25,54.74l-.89.5c0-.13-.06-.27-.08-.41l.88-.5.09.41"/><path class="cls-93" d="M133.16,54.33l-.88.5c0-.1-.05-.2-.07-.31l.89-.51.06.32"/><path class="cls-93" d="M133.1,54l-.89.51-.06-.29.88-.52c0,.1,0,.2.07.3"/><path class="cls-92" d="M133,53.71l-.88.52,0-.09c0-.21-.1-.42-.15-.63l.88-.54.15.64,0,.1"/><path class="cls-91" d="M132.85,53l-.88.54c-.07-.29-.14-.57-.22-.86l.88-.54c.08.29.15.58.22.86"/><path class="cls-91" d="M132.63,52.11l-.88.54c-.06-.19-.11-.38-.17-.57l.88-.55c.06.2.11.39.17.58"/><path class="cls-90" d="M132.46,51.53l-.88.55-.12-.4.88-.55.12.4"/><path class="cls-90" d="M132.34,51.13l-.88.55c0-.1-.06-.2-.1-.31l.88-.56c0,.11.06.21.1.32"/><path class="cls-15" d="M132.24,50.81l-.88.56a2.41,2.41,0,0,0-.08-.25l.87-.57.09.26"/><path class="cls-89" d="M132.15,50.55l-.87.57-.06-.2-.3-.84.87-.59c.1.29.2.57.29.86,0,.07,0,.14.07.2"/><path class="cls-89" d="M131.79,49.49l-.87.59c0-.14-.11-.29-.16-.44l.86-.59c.06.14.11.29.17.44"/><path class="cls-13" d="M131.62,49.05l-.86.59-.14-.36.86-.6c.05.12.09.24.14.37"/><path class="cls-13" d="M131.48,48.68l-.86.6-.14-.35.86-.6c0,.11.09.23.14.35"/><path class="cls-12" d="M131.34,48.33l-.86.6c0-.11-.09-.22-.14-.34l.86-.61c0,.12.09.23.14.35"/><path class="cls-12" d="M131.2,48l-.86.61-.15-.36.85-.61.16.36"/><path class="cls-11" d="M131,47.62l-.85.61-.21-.48-.19-.43.85-.63.19.45.21.48"/><path class="cls-10" d="M130.64,46.69l-.85.63c-.08-.17-.16-.35-.25-.52l.85-.64c.08.18.16.35.25.53"/><path class="cls-10" d="M130.39,46.16l-.85.64-.18-.38.84-.65c.06.13.12.26.19.39"/><path class="cls-9" d="M130.2,45.77l-.84.65-.17-.34.84-.65c.05.11.11.23.17.34"/><path class="cls-9" d="M130,45.43l-.84.65-.16-.32.83-.66.17.33"/><path class="cls-9" d="M129.86,45.1l-.83.66-.18-.33.83-.66.18.33"/><path class="cls-88" d="M129.68,44.77l-.83.66c-.06-.12-.12-.24-.19-.36l.83-.66.19.36"/><path class="cls-16" d="M129.49,44.41l-.83.66-.19-.35-.33-.58.82-.68.33.6.2.35"/><path class="cls-16" d="M129,43.46l-.82.68c-.09-.15-.17-.3-.26-.44l.82-.69c.08.15.17.3.26.45"/><path class="cls-16" d="M128.7,43l-.82.69-.21-.35.81-.69.22.35"/><path class="cls-87" d="M128.48,42.66l-.81.69c-.07-.11-.13-.22-.2-.32l.81-.7.2.33"/><path class="cls-87" d="M128.28,42.33l-.81.7-.2-.31.81-.7.2.31"/><path class="cls-87" d="M128.08,42l-.81.7-.21-.33.8-.7.22.33"/><path class="cls-86" d="M127.86,41.69l-.8.7-.25-.38.8-.7c.09.12.17.25.25.38"/><path class="cls-86" d="M127.61,41.31l-.8.7-.06-.1.79-.7.07.1"/><path class="cls-86" d="M127.54,41.21l-.79.7,0-.07-.1-.14.8-.71.09.14.05.08"/><path class="cls-86" d="M127.4,41l-.8.71-.43-.62.79-.73.44.64"/><path class="cls-86" d="M127,40.35l-.79.73-.28-.38.79-.74.28.39"/><path class="cls-85" d="M126.68,40l-.79.74-.24-.33.78-.74.25.33"/><path class="cls-23" d="M126.43,39.63l-.78.74-.23-.31.78-.74.23.31"/><path class="cls-23" d="M126.2,39.32l-.78.74-.24-.31L126,39c.09.1.17.21.25.31"/><path class="cls-23" d="M126,39l-.77.74-.27-.35.77-.74L126,39"/><path class="cls-25" d="M125.68,38.66l-.77.74-.23-.28-.13-.16.77-.75c0,.06.09.11.13.16l.23.29"/><path class="cls-25" d="M125.32,38.21l-.77.75-.36-.43.76-.76.37.44"/><path class="cls-25" d="M125,37.77l-.76.76c-.12-.15-.24-.3-.37-.44l.75-.77.38.45"/><path class="cls-84" d="M124.57,37.32l-.75.77-.38-.44.74-.77.39.44"/><path class="cls-84" d="M124.18,36.88l-.74.77-.4-.44.74-.78.4.45"/><path class="cls-84" d="M123.78,36.43l-.74.78-.42-.45.74-.78.42.45"/><path class="cls-28" d="M123.36,36l-.74.78-.42-.44.73-.8.43.46"/><path class="cls-28" d="M122.93,35.52l-.73.8-.44-.45.72-.8.45.45"/><path class="cls-83" d="M122.48,35.07l-.72.8-.46-.46.71-.8.47.46"/><path class="cls-28" d="M122,34.61l-.71.8-.48-.45.7-.82.49.47"/><path class="cls-82" d="M121.52,34.14l-.7.82-.5-.47.7-.81.5.46"/><path class="cls-82" d="M121,33.68l-.7.81L119.8,34l.69-.83.53.48"/><path class="cls-81" d="M120.49,33.2l-.69.83-.55-.48.68-.83.56.48"/><path class="cls-80" d="M119.93,32.72l-.68.83-.57-.48.67-.84.58.49"/><path class="cls-80" d="M119.35,32.23l-.67.84-.61-.48.67-.85.61.49"/><path class="cls-80" d="M118.74,31.74l-.67.85-.64-.5.66-.85.65.5"/><path class="cls-31" d="M118.09,31.24l-.66.85-.68-.51.65-.86.69.52"/><path class="cls-32" d="M117.4,30.72l-.65.86-.73-.52.64-.87.74.53"/><path class="cls-32" d="M116.66,30.19l-.64.87c-.25-.18-.52-.35-.78-.53l.63-.88.79.54"/><path class="cls-33" d="M115.87,29.65l-.63.88-.59-.38-.26-.17.61-.89.27.17.6.39"/><path class="cls-79" d="M115,29.09l-.61.89-.94-.58.6-.89,1,.58"/><path class="cls-79" d="M114.05,28.51l-.6.89-1.06-.61.59-.9,1.07.62"/><path class="cls-34" d="M113,27.89l-.59.9c-.4-.22-.8-.44-1.21-.65l.56-.91c.42.21.83.43,1.24.66"/><path class="cls-78" d="M111.74,27.23l-.56.91c-.49-.25-1-.49-1.48-.72l.54-.93c.51.24,1,.48,1.5.74"/><path class="cls-78" d="M110.24,26.49l-.54.93c-.65-.31-1.31-.59-2-.86l.51-.94q1,.4,2,.87"/><path class="cls-77" d="M108.23,25.62l-.51.94a38.23,38.23,0,0,0-5.25-1.7l-.84-.2.42-1,.85.2a40.89,40.89,0,0,1,5.33,1.73"/><path class="cls-78" d="M102.05,23.69l-.42,1-1-.2.42-1,1,.21"/><path class="cls-78" d="M101.08,23.48l-.42,1c-.47-.09-.94-.18-1.42-.25l-.72-.1.37-1,.73.11c.49.07,1,.15,1.46.24"/><path class="cls-34" d="M98.89,23.13l-.37,1L97.84,24l.36-1,.69.09"/><path class="cls-79" d="M98.2,23l-.36,1L97.12,24l.36-1,.72.07"/><path class="cls-79" d="M97.48,23l-.36,1L96,23.86h-.31l.33-1h.32c.39,0,.77.05,1.16.09"/><path class="cls-33" d="M96,22.87l-.33,1-.62,0,.32-1,.63,0"/><path class="cls-32" d="M95.37,22.84l-.32,1H94.5l.32-1,.55,0"/><path class="cls-32" d="M94.82,22.82l-.32,1h-.56l.31-1h.57"/><path class="cls-31" d="M94.25,22.82l-.31,1h-.66l.3-1h.67"/><path class="cls-80" d="M93.58,22.83l-.3,1-.56,0-.47,0,.28-1,.47,0,.58,0"/><path class="cls-80" d="M92.53,22.87l-.28,1-.52,0,.27-1,.53,0"/><path class="cls-80" d="M92,22.9l-.27,1-.49,0,.27-1,.49,0"/><path class="cls-81" d="M91.51,22.93l-.27,1-.48,0L91,23l.49-.05"/><path class="cls-82" d="M91,23l-.26,1-.53.06.25-1L91,23"/><path class="cls-82" d="M90.48,23l-.25,1-.61.07.23-1,.63-.09"/><path class="cls-28" d="M89.85,23.12l-.23,1-.16,0h-.12l.23-1,.13,0,.15,0"/><path class="cls-82" d="M89.57,23.16l-.23,1h-.06l.23-1h.06"/><path class="cls-28" d="M89.51,23.17l-.23,1-.36.06.22-1,.37,0"/><path class="cls-83" d="M89.14,23.22l-.22,1-.41.07.21-1,.42-.07"/><path class="cls-28" d="M88.72,23.29l-.21,1-.49.08.21-1,.49-.09"/><path class="cls-28" d="M88.23,23.38l-.21,1-.57.12.2-1,.58-.11"/><path class="cls-84" d="M87.65,23.49l-.2,1-.61.13.19-1,.62-.14"/><path class="cls-84" d="M87,23.63l-.19,1-.52.13-.18,0,.19-1,.18,0,.52-.13"/><path class="cls-84" d="M86.33,23.8l-.19,1-.34.09.18-1,.35-.09"/><path class="cls-25" d="M86,23.89l-.18,1-.38.11.16-1,.4-.11"/><path class="cls-25" d="M85.58,24l-.16,1L85,25.1l.16-1,.45-.14"/><path class="cls-25" d="M85.13,24.14l-.16,1-.52.16.16-1,.52-.16"/><path class="cls-23" d="M84.61,24.3l-.16,1-.57.2.15-1,.58-.2"/><path class="cls-23" d="M84,24.5l-.15,1a5.17,5.17,0,0,0-.51.18l-.17.06.14-.95.18-.07L84,24.5"/><path class="cls-23" d="M83.34,24.75l-.14.95-.35.13.13-.95.36-.13"/><path class="cls-85" d="M83,24.88l-.13.95-.4.17.12-.95.41-.17"/><path class="cls-86" d="M82.57,25.05l-.12.95-.47.2.11-.95.48-.2"/><path class="cls-86" d="M82.09,25.25,82,26.2l-.56.25.11-.95.56-.25"/><path class="cls-86" d="M81.53,25.5l-.11.95-.62.29.1-.93.63-.31"/><path class="cls-87" d="M80.9,25.81l-.1.93-.17.09-.37.19.09-.94.38-.19.17-.08"/><path class="cls-87" d="M80.35,26.08l-.09.94-.41.22.08-.93.42-.23"/><path class="cls-87" d="M79.93,26.31l-.08.93-.5.28.07-.93.51-.28"/><path class="cls-16" d="M79.42,26.59l-.07.93c-.21.12-.42.24-.62.37L78.8,27l.62-.38"/><path class="cls-16" d="M78.8,27l-.07.92-.62.39-.07,0,.06-.91.07,0,.63-.4"/><path class="cls-16" d="M78.1,27.41l-.06.91-.59.41,0-.91.6-.41"/><path class="cls-88" d="M77.5,27.82l0,.91-.62.44,0-.89c.2-.16.41-.31.62-.46"/><path class="cls-9" d="M76.88,28.28l0,.89-.64.5,0-.89.66-.5"/><path class="cls-9" d="M76.22,28.78l0,.89c-.24.19-.47.38-.69.58l0-.89.7-.58"/><path class="cls-9" d="M75.52,29.36l0,.89c-.26.22-.5.44-.75.67v-.87c.25-.24.5-.46.76-.69"/><path class="cls-10" d="M74.76,30.05v.87c-.28.27-.56.54-.83.82v-.86c.27-.28.55-.56.84-.83"/><path class="cls-10" d="M73.92,30.88v.86c-.35.36-.68.72-1,1.1l0-.84c.33-.38.67-.76,1-1.12"/><path class="cls-11" d="M72.9,32l0,.84a23.15,23.15,0,0,0-1.56,2l0-.81a24.27,24.27,0,0,1,1.58-2"/><path class="cls-12" d="M71.32,34.05l0,.81c-.34.49-.65,1-1,1.5s-.43.77-.64,1.16l-.06-.77c.21-.4.42-.79.64-1.18s.63-1,1-1.52"/><path class="cls-11" d="M69.71,36.75l.06.77a25.07,25.07,0,0,0-1.08,2.42l-.08-.73a22.71,22.71,0,0,1,1.1-2.46"/><path class="cls-10" d="M68.61,39.21l.08.73c-.19.49-.37,1-.53,1.49l-.08-.71c.16-.51.34-1,.53-1.51"/><path class="cls-10" d="M68.08,40.72l.08.71c-.12.4-.24.81-.35,1.22L67.72,42c.11-.42.23-.83.36-1.24"/><path class="cls-9" d="M67.72,42l.09.69c-.09.36-.18.71-.26,1.07L67.46,43c.08-.36.16-.72.26-1.08"/><path class="cls-9" d="M67.46,43l.09.68c-.07.33-.13.65-.19,1l-.1-.67c.06-.33.13-.66.2-1"/><path class="cls-9" d="M67.26,44l.1.67-.15.91-.1-.65.15-.93"/><path class="cls-88" d="M67.11,45l.1.65c0,.29-.08.58-.11.86l-.1-.63c0-.3.07-.59.11-.88"/><path class="cls-16" d="M67,45.84l.1.63c0,.25,0,.5-.07.76v.09l-.1-.63V46.6c0-.26,0-.51.07-.76"/><path class="cls-16" d="M66.92,46.69l.1.63q0,.54-.06,1.08l-.11-.62c0-.36,0-.72.07-1.09"/><path class="cls-16" d="M66.85,47.78l.11.62c0,.27,0,.54,0,.82l-.11-.6c0-.28,0-.56,0-.84"/><path class="cls-87" d="M66.82,48.62l.11.6v.56l-.11-.6v-.56"/><path class="cls-87" d="M66.82,49.18l.11.6c0,.13,0,.27,0,.41l-.11-.58c0-.14,0-.29,0-.43"/><path class="cls-87" d="M66.83,49.61l.11.58v.05c0,.38,0,.76,0,1.14l-.11-.56c0-.39,0-.78,0-1.16v0"/><path class="cls-86" d="M66.88,50.82l.11.56q0,.4.06.81l-.11-.56q0-.41-.06-.81"/><path class="cls-86" d="M66.94,51.63l.11.56c0,.19,0,.37,0,.56L67,52.2c0-.19,0-.38,0-.57"/><path class="cls-86" d="M67,52.2l.11.55c0,.14,0,.28.05.42l-.1-.54L67,52.2"/><path class="cls-85" d="M67.05,52.63l.1.54c0,.06,0,.11,0,.17,0,.26.07.53.11.79l-.1-.52c0-.27-.08-.54-.11-.8a1.1,1.1,0,0,1,0-.18"/><path class="cls-23" d="M67.18,53.61l.1.52c0,.31.1.62.16.93l-.11-.52c0-.31-.11-.62-.15-.93"/><path class="cls-23" d="M67.33,54.54l.11.52.12.64-.1-.51c0-.22-.09-.43-.13-.65"/><path class="cls-23" d="M67.46,55.19l.1.51v0l-.1-.5v-.05"/></g></g></g><g class="cls-4"><g class="cls-109"><g class="cls-4"><path class="cls-93" d="M107.15,93.89l-.51,0h-.21l.51,0h.21"/><path class="cls-93" d="M106.94,93.9l-.51,0-.27,0,.5,0h.28"/><path class="cls-92" d="M106.66,93.91l-.5,0H106l.5,0h.18"/><path class="cls-91" d="M106.48,93.92l-.5,0-.55,0,.49,0h.56"/><path class="cls-91" d="M105.92,93.93l-.49,0h-.38l.49,0h.38"/><path class="cls-90" d="M105.54,93.94l-.49,0h-.31l.48,0h.32"/><path class="cls-90" d="M105.22,93.94l-.48,0h-.28l.48,0h.28"/><path class="cls-15" d="M104.94,93.94l-.48,0h-.26l.47,0h.27"/><path class="cls-89" d="M104.67,93.94l-.47,0h-.27l.47,0h.27"/><path class="cls-89" d="M104.4,93.93l-.47,0h-.5l.46,0h.51"/><path class="cls-13" d="M103.89,93.92l-.46,0h-.35l.46,0h.35"/><path class="cls-13" d="M103.54,93.91l-.46,0-.29,0,.45,0h.3"/><path class="cls-12" d="M103.24,93.9l-.45,0h-.27l.45,0,.27,0"/><path class="cls-12" d="M103,93.88l-.45,0h-.22l.45,0H103"/><path class="cls-11" d="M102.75,93.87l-.45,0-.41,0,.44,0,.42,0"/><path class="cls-10" d="M102.33,93.84l-.44,0-.43,0,.44,0,.43,0"/><path class="cls-10" d="M101.9,93.81l-.44,0-.32,0,.43,0,.33,0"/><path class="cls-9" d="M101.57,93.78l-.43,0-.29,0,.43,0,.29,0"/><path class="cls-9" d="M101.28,93.75l-.43,0-.26,0,.43,0,.26,0"/><path class="cls-9" d="M101,93.73l-.43,0h-.18l.42,0h.07l.12,0"/><path class="cls-88" d="M100.83,93.71l-.42,0-.51-.06.42,0,.51.06"/><path class="cls-16" d="M100.32,93.65l-.42,0-.38-.05.41,0,.39.05"/><path class="cls-16" d="M99.93,93.6l-.41,0-.32,0,.41,0,.32,0"/><path class="cls-16" d="M99.61,93.56l-.41,0-.27,0,.4,0,.28,0"/><path class="cls-87" d="M99.33,93.52l-.4,0-.27,0,.41,0,.26,0"/><path class="cls-87" d="M99.07,93.48l-.41,0h-.14l.4,0,.1,0h0"/><path class="cls-87" d="M98.92,93.45l-.4,0-.59-.1.39,0,.6.09"/><path class="cls-86" d="M98.32,93.36l-.39,0-.36-.06.39,0,.36.07"/><path class="cls-86" d="M98,93.29l-.39,0-.3-.06.39,0,.3.05"/><path class="cls-86" d="M97.66,93.24l-.39,0-.27,0,.38,0,.28.06"/><path class="cls-85" d="M97.38,93.18l-.38,0-.23,0h0l.37,0h0l.23,0"/><path class="cls-23" d="M97.13,93.14l-.37,0-.34-.07.38,0,.33.07"/><path class="cls-23" d="M96.8,93.07l-.38,0L96,93l.36,0,.48.1"/><path class="cls-23" d="M96.32,93,96,93l-.34-.07.36,0,.34.08"/><path class="cls-25" d="M96,92.89l-.36,0-.29-.07.36,0,.29.07"/><path class="cls-25" d="M95.69,92.82l-.36,0-.27-.06.36,0,.27.06"/><path class="cls-25" d="M95.42,92.76l-.36,0-.13,0-.17,0,.36,0,.17,0,.13,0"/><path class="cls-84" d="M95.12,92.68l-.36,0-.33-.09.35,0,.34.08"/><path class="cls-84" d="M94.78,92.6l-.35,0-.33-.09.34,0,.34.09"/><path class="cls-84" d="M94.44,92.51l-.34,0-.33-.09.34,0,.33.1"/><path class="cls-28" d="M94.11,92.41l-.34,0-.33-.09.33-.05.34.09"/><path class="cls-28" d="M93.77,92.32l-.33.05-.34-.1.33,0,.34.1"/><path class="cls-83" d="M93.43,92.22l-.33,0-.33-.1.32,0,.34.1"/><path class="cls-28" d="M93.09,92.12l-.32,0-.34-.1.32,0,.34.1"/><path class="cls-82" d="M92.75,92l-.32,0-.34-.1.32-.06.34.11"/><path class="cls-82" d="M92.41,91.91l-.32.06-.34-.11.32-.06.34.11"/><path class="cls-81" d="M92.07,91.8l-.32.06-.33-.12.3-.06.35.12"/><path class="cls-80" d="M91.72,91.68l-.3.06-.35-.11.31-.06.34.11"/><path class="cls-80" d="M91.38,91.57l-.31.06-.34-.12.3-.07.35.13"/><path class="cls-80" d="M91,91.44l-.3.07-.34-.13.29-.06.35.12"/><path class="cls-31" d="M90.68,91.32l-.29.06L90,91.25l.29-.06.35.13"/><path class="cls-32" d="M90.33,91.19l-.29.06-.35-.13.29-.06.35.13"/><path class="cls-32" d="M90,91.06l-.29.06L89.34,91l.28-.07.36.14"/><path class="cls-33" d="M89.62,90.92l-.28.07L89,90.85l.28-.07.35.14"/><path class="cls-79" d="M89.27,90.78l-.28.07-.35-.14.27-.08.36.15"/><path class="cls-79" d="M88.91,90.63l-.27.08-.36-.15.27-.08.36.15"/><path class="cls-34" d="M88.55,90.48l-.27.08-.35-.15.26-.08.36.15"/><path class="cls-78" d="M88.19,90.33l-.26.08-.36-.16.25-.08.37.16"/><path class="cls-78" d="M87.82,90.17l-.25.08-.36-.16.25-.08.36.16"/><path class="cls-77" d="M87.46,90l-.25.08-.37-.17.25-.08.37.17"/><path class="cls-77" d="M87.09,89.84l-.25.08-.36-.17.24-.08.37.17"/><path class="cls-76" d="M86.72,89.67l-.24.08-.37-.18.23-.08.38.18"/><path class="cls-36" d="M86.34,89.49l-.23.08-.37-.18L86,89.3l.37.19"/><path class="cls-36" d="M86,89.3l-.23.09-.38-.18.23-.1c.12.07.25.13.38.19"/><path class="cls-75" d="M85.59,89.11l-.23.1L85,89l.23-.09.38.19"/><path class="cls-75" d="M85.21,88.92,85,89l-.38-.2.22-.09.39.2"/><path class="cls-74" d="M84.82,88.72l-.22.09-.38-.2.21-.1.39.21"/><path class="cls-73" d="M84.43,88.51l-.21.1-.39-.21.21-.1.39.21"/><path class="cls-73" d="M84,88.3l-.21.1-.39-.22.2-.1.4.22"/><path class="cls-72" d="M83.64,88.08l-.2.1L83,88l.2-.11.4.23"/><path class="cls-72" d="M83.24,87.85,83,88l-.4-.24.19-.11.41.24"/><path class="cls-71" d="M82.83,87.61l-.19.11a4.23,4.23,0,0,1-.4-.24l.19-.11.4.24"/><path class="cls-40" d="M82.43,87.37l-.19.11-.41-.24.18-.12.42.25"/><path class="cls-40" d="M82,87.12l-.18.12L81.42,87l.18-.12.41.26"/><path class="cls-70" d="M81.6,86.86l-.18.12L81,86.73h0l.17-.13,0,0,.4.25"/><path class="cls-69" d="M81.17,86.59l-.17.13-.42-.28.16-.13.43.28"/><path class="cls-69" d="M80.74,86.31l-.16.13-.43-.29.16-.13.43.29"/><path class="cls-68" d="M80.31,86l-.16.13-.43-.29.15-.14.44.3"/><path class="cls-67" d="M79.87,85.72l-.15.14-.45-.31.15-.14.45.31"/><path class="cls-67" d="M79.42,85.41l-.15.14-.45-.32.15-.15.45.33"/><path class="cls-66" d="M79,85.08l-.15.15-.45-.33.13-.15.47.33"/><path class="cls-65" d="M78.5,84.75l-.13.15-.46-.35L78,84.4l.46.35"/><path class="cls-65" d="M78,84.4l-.13.15-.48-.37.12-.15.49.37"/><path class="cls-65" d="M77.55,84l-.12.15L77,83.8l.11-.16.49.39"/><path class="cls-64" d="M77.06,83.64,77,83.8l-.5-.4.11-.17.5.41"/><path class="cls-63" d="M76.56,83.23l-.11.17L76,83l.1-.17.51.42"/><path class="cls-63" d="M76.05,82.81,76,83l-.52-.44.1-.18.52.45"/><path class="cls-63" d="M75.53,82.36l-.1.18-.53-.47.09-.19.54.48"/><path class="cls-62" d="M75,81.88l-.09.19-.56-.5.09-.2.56.51"/><path class="cls-62" d="M74.43,81.37l-.09.2L73.77,81l.08-.2.58.54"/><path class="cls-62" d="M73.85,80.83l-.08.2c-.2-.19-.4-.38-.59-.58l.06-.2.61.58"/><path class="cls-62" d="M73.24,80.25l-.06.2-.63-.62.06-.22.63.64"/><path class="cls-61" d="M72.61,79.61l-.06.22-.66-.69,0-.23c.22.24.45.47.67.7"/><path class="cls-61" d="M71.94,78.91l0,.23-.69-.76,0-.24.7.77"/><path class="cls-60" d="M71.24,78.14l0,.24-.76-.86,0-.25c.25.3.51.59.77.87"/><path class="cls-60" d="M70.47,77.27l0,.25c-.28-.33-.56-.66-.83-1l0-.26.84,1"/><path class="cls-59" d="M69.63,76.26l0,.26,0,0c-.36-.45-.72-.92-1.06-1.38v-.28c.35.48.71.94,1.08,1.4l0,0"/><path class="cls-58" d="M68.53,74.84v.28L68.41,75c-.37-.5-.73-1-1.08-1.52v-.3c.35.52.72,1,1.1,1.54l.11.15"/><path class="cls-58" d="M67.32,73.15v.3l0,0c-.36-.54-.71-1.09-1-1.63s-.66-1.11-1-1.66-.61-1.14-.9-1.71-.56-1.17-.82-1.75-.51-1.19-.75-1.79-.45-1.22-.66-1.82-.39-1.23-.57-1.84-.32-1.22-.46-1.83-.21-.93-.3-1.4l-.09-.5c.09.47.18.94.29,1.42s.3,1.23.48,1.85.36,1.24.57,1.86.44,1.24.67,1.85.49,1.21.76,1.81.54,1.19.83,1.77.6,1.16.92,1.73.64,1.14,1,1.69.7,1.1,1.06,1.64l0,.06"/></g></g></g><g class="cls-4"><g class="cls-110"><g class="cls-4"><path class="cls-90" d="M132,80.3l-1.71,2.2c-.48.61-1,1.21-1.51,1.78l1.71-2.2c.53-.57,1-1.16,1.51-1.78"/><path class="cls-90" d="M130.45,82.08l-1.71,2.2c-.42.46-.87.91-1.33,1.35l1.71-2.2c.46-.44.91-.89,1.33-1.35"/><path class="cls-15" d="M129.12,83.43l-1.71,2.2-1,.86,1.71-2.2,1-.86"/><path class="cls-89" d="M128.17,84.29l-1.71,2.2c-.27.23-.53.45-.81.67l1.71-2.2c.28-.22.55-.44.81-.67"/><path class="cls-89" d="M127.36,85l-1.71,2.2c-.23.19-.47.37-.71.55l1.71-2.19.71-.56"/><path class="cls-13" d="M126.65,85.52l-1.71,2.19q-.33.26-.66.48L126,86l.66-.48"/><path class="cls-13" d="M126,86l-1.71,2.19-.62.43,1.71-2.2L126,86"/><path class="cls-12" d="M125.37,86.42l-1.71,2.2-.23.15-.36.23,1.71-2.2.37-.23.22-.15"/><path class="cls-12" d="M124.78,86.8,123.07,89l-.56.35,1.71-2.2.56-.35"/><path class="cls-11" d="M124.22,87.15l-1.71,2.2-.5.29,0,0,1.71-2.19,0,0,.5-.3"/><path class="cls-10" d="M123.68,87.47,122,89.66l-.52.3,1.71-2.2.52-.29"/><path class="cls-10" d="M123.16,87.76,121.45,90l-.5.27,1.71-2.2.5-.27"/><path class="cls-9" d="M122.66,88,121,90.23l-.43.22-.07,0,1.71-2.2.07,0,.43-.22"/><path class="cls-9" d="M122.16,88.28l-1.71,2.2-.48.24,1.71-2.2.48-.24"/><path class="cls-9" d="M121.68,88.52,120,90.72l-.47.22,1.71-2.2.47-.22"/><path class="cls-88" d="M121.21,88.74l-1.71,2.2-.47.2L120.74,89l.47-.21"/><path class="cls-16" d="M120.74,89,119,91.14l-.06,0-.39.17,1.71-2.2.39-.16.06,0"/><path class="cls-16" d="M120.29,89.14l-1.71,2.2-.45.18,1.71-2.19.45-.19"/><path class="cls-16" d="M119.84,89.33l-1.71,2.19-.45.18,1.71-2.2.45-.17"/><path class="cls-87" d="M119.39,89.5l-1.71,2.2-.33.12-.11,0L119,89.67l.11,0,.33-.13"/><path class="cls-87" d="M119,89.67l-1.71,2.19-.43.16,1.71-2.2.43-.15"/><path class="cls-87" d="M118.52,89.82,116.81,92l-.43.15,1.71-2.2.43-.15"/><path class="cls-86" d="M118.09,90l-1.71,2.2-.43.13,1.71-2.19.43-.14"/><path class="cls-86" d="M117.66,90.11,116,92.3l-.27.09-.15,0,1.71-2.2.15,0,.27-.08"/><path class="cls-86" d="M117.24,90.24l-1.71,2.2-.43.12,1.72-2.2.42-.12"/><path class="cls-85" d="M116.82,90.36l-1.72,2.2-.42.12,1.72-2.2.42-.12"/><path class="cls-23" d="M116.4,90.48l-1.72,2.2-.41.11,1.71-2.2.42-.11"/><path class="cls-23" d="M116,90.59l-1.71,2.2-.32.08-.1,0,1.71-2.2.1,0,.32-.09"/><path class="cls-23" d="M115.56,90.7l-1.71,2.2-.41.1,1.71-2.2.41-.1"/><path class="cls-25" d="M115.15,90.8,113.44,93l-.41.09,1.71-2.2.41-.09"/><path class="cls-25" d="M114.74,90.89,113,93.09l-.41.09,1.71-2.2.41-.09"/><path class="cls-25" d="M114.33,91l-1.71,2.2-.42.08,1.72-2.2.41-.08"/><path class="cls-84" d="M113.92,91.06l-1.72,2.2h0l-.36.07,1.71-2.2.36-.07h0"/><path class="cls-84" d="M113.51,91.14l-1.71,2.2-.41.07,1.71-2.2.41-.07"/><path class="cls-84" d="M113.1,91.21l-1.71,2.2-.41.07,1.71-2.2.41-.07"/><path class="cls-28" d="M112.69,91.28,111,93.48l-.41.06,1.71-2.19.41-.07"/><path class="cls-28" d="M112.28,91.35l-1.71,2.19-.26,0-.16,0,1.72-2.2.15,0,.26,0"/><path class="cls-83" d="M111.87,91.4l-1.72,2.2-.4.05,1.71-2.19.41-.06"/><path class="cls-28" d="M111.46,91.46l-1.71,2.19-.41,0,1.71-2.19.41-.05"/><path class="cls-82" d="M111.05,91.51l-1.71,2.19-.41,0,1.71-2.2.41,0"/><path class="cls-82" d="M110.64,91.55l-1.71,2.2-.41,0,1.72-2.2.4,0"/><path class="cls-81" d="M110.24,91.59l-1.72,2.2h-.08l-.32,0,1.71-2.2.32,0h.09"/><path class="cls-80" d="M109.83,91.62l-1.71,2.2-.4,0,1.71-2.2.4,0"/><path class="cls-80" d="M109.43,91.65l-1.71,2.2-.41,0,1.71-2.2.41,0"/><path class="cls-80" d="M109,91.68l-1.71,2.2-.4,0,1.71-2.2.4,0"/><path class="cls-31" d="M108.62,91.7l-1.71,2.2h-.41l1.71-2.19h.05l.36,0"/><path class="cls-32" d="M108.21,91.72l-1.71,2.19-.4,0,1.71-2.2h.4"/><path class="cls-32" d="M107.81,91.73l-1.71,2.2h-.41l1.71-2.2h.41"/><path class="cls-33" d="M107.4,91.74l-1.71,2.2h-.41l1.72-2.2h.4"/><path class="cls-79" d="M107,91.74l-1.72,2.2h-.4l1.71-2.2H107"/><path class="cls-79" d="M106.59,91.74l-1.71,2.2h-.41l1.71-2.19h.41"/><path class="cls-34" d="M106.18,91.74l-1.71,2.19h-.41l1.71-2.2h.41"/><path class="cls-78" d="M105.77,91.73l-1.71,2.2-.41,0,1.71-2.19h.41"/><path class="cls-78" d="M105.36,91.72l-1.71,2.19h-.41L105,91.7l.41,0"/><path class="cls-77" d="M105,91.7l-1.71,2.2-.42,0,1.72-2.19.41,0"/><path class="cls-77" d="M104.54,91.68l-1.72,2.19h0l-.37,0,1.71-2.2.37,0h.05"/><path class="cls-76" d="M104.12,91.65l-1.71,2.2-.42,0,1.71-2.2.42,0"/><path class="cls-36" d="M103.7,91.62,102,93.82l-.42,0,1.71-2.2.42,0"/><path class="cls-36" d="M103.28,91.58l-1.71,2.2-.42,0,1.71-2.2.42,0"/><path class="cls-75" d="M102.86,91.54l-1.71,2.2-.25,0-.18,0,1.71-2.19.18,0,.25,0"/><path class="cls-75" d="M102.43,91.5l-1.71,2.19-.43,0L102,91.45l.43,0"/><path class="cls-74" d="M102,91.45l-1.71,2.19-.43,0,1.71-2.2.43.06"/><path class="cls-73" d="M101.57,91.39l-1.71,2.2-.44-.06,1.71-2.2.44.06"/><path class="cls-73" d="M101.13,91.33l-1.71,2.2-.4-.06h0l1.71-2.19h0l.4.06"/><path class="cls-72" d="M100.69,91.27,99,93.46l-.44-.07,1.71-2.19.44.07"/><path class="cls-72" d="M100.25,91.2l-1.71,2.19-.45-.07,1.71-2.2.45.08"/><path class="cls-71" d="M99.8,91.12l-1.71,2.2-.45-.09L99.35,91l.45.08"/><path class="cls-40" d="M99.35,91l-1.71,2.19-.46-.09L98.89,91l.46.09"/><path class="cls-40" d="M98.89,91l-1.71,2.19h0l-.44-.09,1.71-2.2.44.09h0"/><path class="cls-70" d="M98.42,90.85l-1.71,2.2-.47-.1L98,90.75l.47.1"/><path class="cls-69" d="M98,90.75,96.24,93l-.48-.11,1.71-2.2.48.11"/><path class="cls-69" d="M97.47,90.64l-1.71,2.2-.47-.12h0L97,90.52h0l.47.11"/><path class="cls-68" d="M97,90.52l-1.71,2.2-.5-.13,1.72-2.19.49.12"/><path class="cls-67" d="M96.49,90.4l-1.72,2.19-.5-.13L96,90.26l.51.14"/><path class="cls-67" d="M96,90.26l-1.71,2.2-.51-.14,1.71-2.2.51.14"/><path class="cls-66" d="M95.47,90.12l-1.71,2.2-.53-.16L95,90l.52.15"/><path class="cls-65" d="M95,90l-1.72,2.19L92.7,92l1.71-2.2L95,90"/><path class="cls-65" d="M94.41,89.8,92.7,92l-.55-.17,1.71-2.2.55.17"/><path class="cls-65" d="M93.86,89.63l-1.71,2.2-.56-.19,1.71-2.2.56.19"/><path class="cls-64" d="M93.3,89.44l-1.71,2.2-.58-.2,1.71-2.2.58.2"/><path class="cls-63" d="M92.72,89.24,91,91.44l-.59-.22L92.13,89l.59.22"/><path class="cls-63" d="M92.13,89l-1.71,2.2L89.8,91l1.71-2.2.62.23"/><path class="cls-63" d="M91.51,88.79,89.8,91l-.64-.25,1.71-2.2.64.25"/><path class="cls-62" d="M90.87,88.54l-1.71,2.2-.66-.28,1.71-2.2.66.28"/><path class="cls-62" d="M90.21,88.26l-1.71,2.2-.7-.3L89.52,88l.69.3"/><path class="cls-62" d="M89.52,88l-1.72,2.2-.72-.32,1.71-2.2.73.32"/><path class="cls-62" d="M88.79,87.64l-1.71,2.2-.76-.36L88,87.28l.76.36"/><path class="cls-61" d="M88,87.28l-1.71,2.2-.81-.4,1.71-2.2.81.4"/><path class="cls-61" d="M87.22,86.88l-1.71,2.2-.86-.45,1.71-2.2.86.45"/><path class="cls-60" d="M86.36,86.43l-1.71,2.2-1-.52,1.72-2.2.94.52"/><path class="cls-60" d="M85.42,85.91l-1.72,2.2c-.37-.2-.73-.42-1.1-.63l1.72-2.2c.36.22.73.43,1.1.63"/><path class="cls-59" d="M84.32,85.28l-1.72,2.2c-.47-.28-.93-.57-1.4-.87l-.13-.09,1.71-2.19.14.08c.46.3.92.59,1.4.87"/><path class="cls-58" d="M82.78,84.33l-1.71,2.19a47.48,47.48,0,0,1-4.48-3.27l1.71-2.19a51.31,51.31,0,0,0,4.48,3.27"/><path class="cls-59" d="M78.3,81.06l-1.71,2.19c-.52-.42-1-.86-1.54-1.31l1.72-2.19c.5.44,1,.88,1.53,1.31"/><path class="cls-60" d="M76.77,79.75l-1.72,2.19c-.42-.37-.83-.75-1.24-1.14l1.71-2.2c.41.39.83.77,1.25,1.15"/><path class="cls-60" d="M75.52,78.6l-1.71,2.2c-.36-.35-.72-.7-1.07-1.06l1.71-2.2c.35.36.71.71,1.07,1.06"/><path class="cls-61" d="M74.45,77.54l-1.71,2.2-.95-1,1.71-2.2c.31.34.63.67,1,1"/><path class="cls-61" d="M73.5,76.55l-1.71,2.2c-.29-.31-.57-.62-.85-.94l1.71-2.2c.28.32.56.63.85.94"/><path class="cls-62" d="M72.65,75.61l-1.71,2.2c-.27-.3-.53-.61-.79-.91l1.72-2.2c.25.31.51.61.78.91"/><path class="cls-62" d="M71.87,74.7l-1.72,2.2-.54-.66L69.44,76l1.71-2.2.17.22.55.66"/><path class="cls-62" d="M71.15,73.82,69.44,76c-.23-.28-.45-.57-.67-.86L70.48,73c.22.28.44.57.67.85"/><path class="cls-62" d="M70.48,73l-1.71,2.19c-.12-.15-.24-.31-.35-.47l-.27-.36,1.71-2.2.27.36.35.48"/><path class="cls-63" d="M69.86,72.13l-1.71,2.2-.59-.83,1.72-2.2c.19.28.38.56.58.83"/><path class="cls-63" d="M69.28,71.3l-1.72,2.2-.28-.41-.27-.4,1.72-2.2.27.41c.09.13.18.27.28.4"/><path class="cls-63" d="M68.73,70.49,67,72.69l-.52-.8,1.72-2.2c.17.27.34.54.52.8"/><path class="cls-64" d="M68.21,69.69l-1.72,2.2-.27-.44c-.07-.12-.14-.24-.22-.36l1.72-2.2c.07.12.14.24.22.36l.27.44"/><path class="cls-65" d="M67.72,68.89,66,71.09l-.46-.79,1.71-2.2c.15.27.31.53.47.79"/><path class="cls-65" d="M67.25,68.1l-1.71,2.2c-.1-.18-.21-.36-.3-.54a2,2,0,0,1-.14-.25l1.71-2.2c0,.09.09.17.14.26l.3.53"/><path class="cls-65" d="M66.81,67.31l-1.71,2.2q-.22-.39-.42-.78l1.71-2.2q.19.39.42.78"/><path class="cls-66" d="M66.39,66.53l-1.71,2.2-.36-.7,0-.09L66,65.74l0,.1.36.69"/><path class="cls-67" d="M66,65.74l-1.71,2.2-.39-.79L65.61,65c.12.26.25.52.38.78"/><path class="cls-67" d="M65.61,65l-1.72,2.19-.36-.79,1.71-2.19.37.79"/><path class="cls-68" d="M65.24,64.17l-1.71,2.19,0-.1q-.16-.35-.3-.69l1.71-2.2.3.69,0,.11"/><path class="cls-69" d="M64.9,63.37l-1.71,2.2c-.12-.27-.22-.53-.33-.8l1.71-2.2.33.8"/><path class="cls-69" d="M64.57,62.57l-1.71,2.2c0-.11-.09-.21-.13-.32L62.55,64l1.71-2.2.18.49c0,.11.09.21.13.32"/><path class="cls-70" d="M64.26,61.76,62.55,64c-.11-.27-.2-.54-.3-.82L64,61l.3.81"/><path class="cls-40" d="M64,61l-1.71,2.19-.19-.54L62,62.31l1.71-2.19c0,.09.06.19.1.28L64,61"/><path class="cls-40" d="M63.68,60.12,62,62.31c-.09-.27-.18-.55-.26-.83l1.71-2.2c.08.28.17.56.26.84"/><path class="cls-71" d="M63.42,59.28l-1.71,2.2c-.08-.25-.15-.5-.22-.74l0-.1,1.71-2.2,0,.1c.07.25.14.5.22.74"/><path class="cls-72" d="M63.17,58.44l-1.71,2.2c-.08-.28-.15-.57-.23-.85L63,57.59c.07.29.14.57.22.85"/><path class="cls-72" d="M63,57.59l-1.72,2.2L61,58.93l1.72-2.2c.06.29.13.58.21.86"/><path class="cls-73" d="M62.74,56.73,61,58.93v0l-.18-.83,1.71-2.2c.06.28.12.55.19.83v0"/><path class="cls-73" d="M62.54,55.86l-1.71,2.2c-.06-.3-.12-.59-.17-.89L62.37,55c.06.29.11.59.17.88"/><path class="cls-74" d="M62.37,55l-1.71,2.19,0-.12c0-.26-.09-.52-.13-.78l1.71-2.2c0,.26.08.52.13.78l0,.13"/><path class="cls-75" d="M62.22,54.07l-1.71,2.2c0-.31-.1-.62-.14-.93l1.72-2.2c0,.31.08.62.13.93"/><path class="cls-75" d="M62.09,53.14l-1.72,2.2v-.11c0-.28-.07-.57-.1-.85L62,52.19c0,.28.06.56.09.84l0,.11"/><path class="cls-36" d="M62,52.19l-1.72,2.19c0-.32-.06-.64-.08-1v0l1.71-2.2v0q0,.48.09,1"/><path class="cls-36" d="M61.89,51.2l-1.71,2.2c0-.35,0-.69-.06-1l1.71-2.2c0,.34,0,.68.06,1"/><path class="cls-76" d="M61.83,50.17l-1.71,2.2,0-.72v-.36L61.8,49.1v.35l0,.72"/><path class="cls-77" d="M61.8,49.1l-1.71,2.19c0-.38,0-.76,0-1.13L61.8,48c0,.38,0,.76,0,1.14"/><path class="cls-77" d="M61.8,48l-1.71,2.2c0-.09,0-.18,0-.27,0-.32,0-.63,0-1l1.71-2.19c0,.31,0,.63,0,.94a2.44,2.44,0,0,1,0,.27"/><path class="cls-78" d="M61.85,46.75l-1.71,2.19.06-.78c0-.18,0-.36,0-.54L62,45.42c0,.18,0,.36-.05.55l-.06.78"/><path class="cls-78" d="M62,45.42l-1.71,2.2c0-.5.11-1,.18-1.48L62.14,44q-.11.72-.18,1.47"/><path class="cls-34" d="M62.14,44l-1.71,2.19c.09-.58.19-1.15.31-1.72l1.71-2.2c-.12.57-.22,1.15-.31,1.73"/><path class="cls-79" d="M62.45,42.22l-1.71,2.2c.15-.75.34-1.49.54-2.21L63,40c-.21.73-.39,1.46-.55,2.21"/><path class="cls-79" d="M63,40l-1.72,2.2a29.11,29.11,0,0,1,2.82-6.6c.38-.65.78-1.28,1.21-1.89L67,31.52c-.42.62-.83,1.25-1.21,1.89A28.64,28.64,0,0,0,63,40"/><path class="cls-79" d="M67,31.52l-1.71,2.2c.28-.4.57-.8.88-1.19l1.71-2.19c-.3.38-.59.78-.88,1.18"/></g></g></g><path class="cls-111" d="M88.39,19.23c.61-.08,1.23-.16,1.85-.22s1.24-.09,1.86-.11,1.24,0,1.86,0,1.24,0,1.86.07l1.86.15c.61.08,1.24.15,1.85.24s1.24.21,1.85.33,1.22.26,1.83.41a46.35,46.35,0,0,1,13.9,6,48.56,48.56,0,0,1,11.45,10.24c.4.5.79,1,1.18,1.53s.75,1.05,1.11,1.57.71,1.09,1.05,1.62.66,1.12,1,1.67.61,1.14.91,1.71.55,1.17.82,1.75.51,1.19.74,1.79.45,1.22.67,1.82.39,1.23.56,1.84.33,1.22.47,1.83.26,1.21.37,1.81.2,1.2.28,1.8.13,1.18.17,1.77.08,1.18.09,1.76,0,1.16,0,1.73-.05,1.14-.09,1.71A29.34,29.34,0,0,1,134,76.44a27.71,27.71,0,0,1-8.78,9.22c-.46.3-.94.58-1.41.86s-1,.54-1.47.8-1,.48-1.53.71-1.06.44-1.59.64-1.11.38-1.65.56-1.15.33-1.71.48-1.18.27-1.77.39-1.22.21-1.82.31l-1.85.21q-.93.07-1.86.12c-.62,0-1.24,0-1.86,0s-1.25,0-1.87-.07-1.24-.08-1.86-.15l-1.85-.24L99.26,90c-.6-.13-1.22-.26-1.83-.41a46.32,46.32,0,0,1-13.9-6A48.1,48.1,0,0,1,72.09,73.29c-.4-.5-.8-1-1.18-1.53s-.75-1.05-1.12-1.57-.7-1.08-1-1.62-.66-1.11-1-1.67-.61-1.14-.9-1.71S66.31,64,66,63.45s-.5-1.2-.74-1.79-.45-1.22-.66-1.83-.4-1.23-.57-1.84-.33-1.22-.47-1.82-.26-1.21-.37-1.82-.2-1.2-.27-1.79-.14-1.19-.18-1.78-.07-1.18-.09-1.76,0-1.16,0-1.73,0-1.14.1-1.71A29.24,29.24,0,0,1,66.65,33.2,27.64,27.64,0,0,1,75.44,24c.45-.31.93-.59,1.4-.87s1-.54,1.47-.79,1-.49,1.53-.72,1.07-.44,1.6-.64,1.1-.38,1.65-.56,1.14-.33,1.71-.48,1.18-.27,1.77-.39S87.78,19.32,88.39,19.23Zm22.55,67.26a26.27,26.27,0,0,0,3.2-.62,24.81,24.81,0,0,0,3-.92,23.3,23.3,0,0,0,2.78-1.21,21.89,21.89,0,0,0,2.56-1.47,24.72,24.72,0,0,0,7.82-8.21,26.15,26.15,0,0,0,3.43-11,25.68,25.68,0,0,0,.09-3.06,26.09,26.09,0,0,0-.23-3.14,29.54,29.54,0,0,0-.58-3.22,30.23,30.23,0,0,0-.92-3.26,31.85,31.85,0,0,0-1.25-3.21,32.76,32.76,0,0,0-1.54-3.08,32.37,32.37,0,0,0-1.8-2.93c-.64-1-1.32-1.87-2-2.76a43.08,43.08,0,0,0-10.18-9.11,41.51,41.51,0,0,0-12.37-5.37,38.32,38.32,0,0,0-6.58-1,30.62,30.62,0,0,0-3.32,0,28.46,28.46,0,0,0-3.3.29,29.95,29.95,0,0,0-6.18,1.54,23.46,23.46,0,0,0-2.79,1.21,22.17,22.17,0,0,0-2.56,1.48,24.88,24.88,0,0,0-7.82,8.2,26,26,0,0,0-3.42,11,23.77,23.77,0,0,0-.1,3.06,28.55,28.55,0,0,0,.24,3.15A29.3,29.3,0,0,0,67.64,56a32.71,32.71,0,0,0,.92,3.26c.36,1.11.79,2.17,1.25,3.22a33.84,33.84,0,0,0,1.54,3.07,33.27,33.27,0,0,0,1.8,2.93c.64,1,1.33,1.87,2,2.76a42.69,42.69,0,0,0,10.18,9.11,41.29,41.29,0,0,0,12.37,5.37,32.63,32.63,0,0,0,3.27.66,33.14,33.14,0,0,0,3.31.35c1.1.06,2.2.09,3.31,0a30.42,30.42,0,0,0,3.3-.3"/><g class="cls-4"><g class="cls-112"><g class="cls-4"><path class="cls-23" d="M137.29,54.66l.1.5,0,.13-.1-.5,0-.13"/><path class="cls-23" d="M137.32,54.79l.1.5.09.5,0,.09-.1-.52,0-.08-.09-.49"/><path class="cls-23" d="M137.43,55.36l.1.52.15,1-.1-.53-.15-1"/><path class="cls-85" d="M137.58,56.32l.1.53c0,.25.08.51.11.76v0l-.1-.54v0c0-.25-.07-.51-.11-.76"/><path class="cls-86" d="M137.69,57.11l.1.54.09.75-.11-.55c0-.25-.05-.49-.08-.74"/><path class="cls-86" d="M137.77,57.85l.11.55.09,1-.11-.56c0-.32-.05-.65-.09-1"/><path class="cls-86" d="M137.86,58.83l.11.56v0c0,.2,0,.39,0,.59l-.11-.57c0-.19,0-.39,0-.58v0"/><path class="cls-87" d="M137.9,59.43,138,60c0,.36,0,.72,0,1.08l-.1-.58c0-.36,0-.71,0-1.07"/><path class="cls-87" d="M138,60.5l.1.58v.6l-.11-.59V60.5"/><path class="cls-87" d="M138,61.09l.11.59c0,.37,0,.75,0,1.12l-.1-.6q0-.56,0-1.11"/><path class="cls-16" d="M138,62.2l.1.6V63c0,.16,0,.33,0,.5l-.11-.62c0-.16,0-.32,0-.49a.61.61,0,0,0,0-.14"/><path class="cls-16" d="M137.92,62.83l.11.62c0,.39,0,.77-.07,1.15l-.11-.62c0-.38.05-.76.07-1.15"/><path class="cls-16" d="M137.85,64l.11.62v.07c0,.3,0,.59-.08.88l-.11-.64.09-.86V64"/><path class="cls-88" d="M137.76,64.91l.11.64c0,.33-.08.66-.13,1l-.1-.65c0-.32.09-.65.12-1"/><path class="cls-9" d="M137.64,65.89l.1.65c-.05.36-.11.71-.17,1.06l-.1-.67c.06-.34.12-.69.17-1"/><path class="cls-9" d="M137.47,66.93l.1.67c-.07.38-.14.75-.23,1.12l-.09-.67c.08-.37.15-.74.22-1.12"/><path class="cls-9" d="M137.25,68.05l.09.67c-.09.42-.19.83-.29,1.24l-.1-.69c.11-.41.21-.81.3-1.22"/><path class="cls-10" d="M137,69.27l.1.69c-.13.48-.26,1-.41,1.41l-.09-.71c.15-.46.28-.92.4-1.39"/><path class="cls-10" d="M136.55,70.66l.09.71c-.19.59-.39,1.16-.6,1.72l-.08-.73c.21-.56.41-1.13.59-1.7"/><path class="cls-11" d="M136,72.36l.08.73c-.38,1-.8,1.9-1.26,2.81l-.07-.78A26.44,26.44,0,0,0,136,72.36"/><path class="cls-12" d="M134.71,75.12l.07.78c-.23.45-.48.89-.73,1.33S133.33,78.4,133,79l0-.81q.57-.84,1.08-1.71.39-.64.72-1.32"/><path class="cls-11" d="M132.91,78.15l0,.81a29.07,29.07,0,0,1-1.8,2.34l0-.84a28.37,28.37,0,0,0,1.78-2.31"/><path class="cls-10" d="M131.13,80.46l0,.84c-.38.44-.76.86-1.16,1.27v-.86c.39-.4.77-.82,1.14-1.25"/><path class="cls-10" d="M130,81.71v.86c-.31.33-.64.64-1,1l0-.87c.32-.31.64-.62,1-.94"/><path class="cls-9" d="M129,82.65l0,.87c-.28.27-.57.53-.86.78l0-.88.86-.77"/><path class="cls-9" d="M128.18,83.42l0,.88-.8.66,0-.89c.27-.21.53-.43.78-.65"/><path class="cls-9" d="M127.4,84.07l0,.89c-.24.2-.49.39-.74.58l0-.9.74-.57"/><path class="cls-88" d="M126.66,84.64l0,.9c-.24.17-.47.35-.71.51l0-.9.7-.51"/><path class="cls-16" d="M126,85.15l0,.9-.69.47.06-.91c.23-.15.46-.3.68-.46"/><path class="cls-16" d="M125.28,85.61l-.06.91-.07,0-.59.38.07-.92.58-.37.07,0"/><path class="cls-16" d="M124.63,86l-.07.92-.83.49.08-.92.82-.49"/><path class="cls-87" d="M123.81,86.52l-.08.92h0l-.4.22.09-.92.39-.23h0"/><path class="cls-87" d="M123.41,86.75l-.09.92-.78.42.09-.93.78-.41"/><path class="cls-87" d="M122.63,87.16l-.09.93-.31.16-.13.07.1-.94.13-.06.3-.16"/><path class="cls-86" d="M122.2,87.38l-.1.94-.66.31.11-.94.65-.31"/><path class="cls-86" d="M121.55,87.69l-.11.94-.76.35.12-1,.75-.34"/><path class="cls-86" d="M120.8,88l-.12,1h0l-.34.14.13-.94.33-.15h0"/><path class="cls-85" d="M120.47,88.18l-.13.94-.7.29.13-1,.7-.27"/><path class="cls-23" d="M119.77,88.45l-.13,1-.58.22h0l.15-1h0l.56-.22"/><path class="cls-23" d="M119.18,88.68l-.15,1-.41.15.14-1,.42-.15"/><path class="cls-23" d="M118.76,88.83l-.14,1-.72.24.16-1,.7-.24"/><path class="cls-25" d="M118.06,89.07l-.16,1-.51.16,0,0,.16-1,0,0,.5-.16"/><path class="cls-25" d="M117.51,89.25l-.16,1-.43.13.16-1,.43-.12"/><path class="cls-25" d="M117.08,89.37l-.16,1-.72.2.17-1,.71-.2"/><path class="cls-84" d="M116.37,89.57l-.17,1-.54.14h0l.19-1h0l.52-.14"/><path class="cls-84" d="M115.81,89.72l-.19,1-.42.1.19-1,.42-.1"/><path class="cls-84" d="M115.39,89.82l-.19,1-.75.17.2-1,.74-.16"/><path class="cls-28" d="M114.65,90l-.2,1-.58.11h0l.21-1h0l.57-.12"/><path class="cls-28" d="M114.05,90.11l-.21,1-.43.08.22-1,.42-.08"/><path class="cls-83" d="M113.63,90.19l-.22,1-.8.13.22-1,.8-.13"/><path class="cls-28" d="M112.83,90.32l-.22,1c-.19,0-.39.06-.59.09h0l.23-1h0l.57-.09"/><path class="cls-82" d="M112.23,90.41l-.23,1-.69.08.25-1,.67-.08"/><path class="cls-82" d="M111.56,90.49l-.25,1-.62.07.25-1,.62-.08"/><path class="cls-81" d="M110.94,90.57l-.25,1-.52,0,.26-1,.51-.05"/><path class="cls-80" d="M110.43,90.62l-.26,1h0c-.3,0-.59.05-.89.06l.28-1,.87-.06h0"/><path class="cls-80" d="M109.54,90.68l-.28,1-.59,0,.28-1,.59,0"/><path class="cls-80" d="M109,90.72l-.28,1-.41,0h-.08l.29-1h.08l.4,0"/><path class="cls-31" d="M108.47,90.74l-.29,1-1.09,0,.3-1,1.08,0"/><path class="cls-32" d="M107.39,90.76l-.3,1h-.59l.31-1h.58"/><path class="cls-32" d="M106.81,90.76l-.31,1h-.12l-1,0,.32-1,1,0h.12"/><path class="cls-33" d="M105.73,90.74l-.32,1-.66,0,.33-1,.65,0"/><path class="cls-79" d="M105.08,90.71l-.33,1-.26,0-.95-.06.35-1,.93.06.26,0"/><path class="cls-79" d="M103.89,90.63l-.35,1-.73-.07.36-1,.72.07"/><path class="cls-34" d="M103.17,90.56l-.36,1-.2,0-1.22-.15.37-1c.4.06.81.1,1.2.15l.21,0"/><path class="cls-78" d="M101.76,90.39l-.37,1-.66-.1-1-.16.4-1,.93.16.65.09"/><path class="cls-78" d="M100.18,90.14l-.4,1-.92-.17-1.07-.23.42-1,1.05.22.92.17"/><path class="cls-77" d="M98.21,89.75l-.42,1L97,90.53a45.23,45.23,0,0,1-6.07-2l.51-.94a44.48,44.48,0,0,0,6,1.94l.78.19"/><path class="cls-78" d="M91.44,87.62l-.51.94c-.77-.31-1.54-.64-2.3-1l.55-.93c.74.35,1.5.68,2.26,1"/><path class="cls-78" d="M89.18,86.64l-.55.93c-.57-.27-1.14-.55-1.7-.84l.56-.92c.56.29,1.12.57,1.69.83"/><path class="cls-34" d="M87.49,85.81l-.56.92L85.52,86l.58-.9c.46.26.92.5,1.39.74"/><path class="cls-79" d="M86.1,85.07l-.58.9c-.41-.22-.81-.46-1.22-.7l.6-.89,1.2.69"/><path class="cls-79" d="M84.9,84.38l-.6.89c-.36-.21-.72-.44-1.08-.66l.61-.89,1.07.66"/><path class="cls-33" d="M83.83,83.72l-.61.89-.3-.2L82.23,84l.63-.88.67.44.3.19"/><path class="cls-32" d="M82.86,83.09l-.63.88-.9-.62.63-.87.9.61"/><path class="cls-32" d="M82,82.48l-.63.87-.84-.6.64-.86.83.59"/><path class="cls-31" d="M81.13,81.89l-.64.86c-.27-.19-.53-.39-.79-.59l.66-.85.77.58"/><path class="cls-80" d="M80.36,81.31l-.66.85L79,81.59l.67-.85.73.57"/><path class="cls-80" d="M79.63,80.74l-.67.85-.7-.56.68-.84.69.55"/><path class="cls-80" d="M78.94,80.19l-.68.84-.66-.56.68-.83.66.55"/><path class="cls-81" d="M78.28,79.64l-.68.83L77,79.93l.69-.83.62.54"/><path class="cls-82" d="M77.66,79.1l-.69.83-.6-.54.7-.82.59.53"/><path class="cls-82" d="M77.07,78.57l-.7.82-.58-.54L76.5,78l.57.53"/><path class="cls-28" d="M76.5,78l-.71.81c-.19-.17-.37-.35-.55-.53l.71-.8.55.52"/><path class="cls-83" d="M76,77.52l-.71.8-.54-.52.73-.8c.17.17.34.35.52.52"/><path class="cls-28" d="M75.43,77l-.73.8-.51-.52.73-.79.51.51"/><path class="cls-28" d="M74.92,76.49l-.73.79c-.16-.17-.33-.34-.49-.52l.73-.78.49.51"/><path class="cls-84" d="M74.43,76l-.73.78-.48-.51.74-.78.47.51"/><path class="cls-84" d="M74,75.47l-.74.78-.46-.51.75-.77.45.5"/><path class="cls-84" d="M73.51,75l-.75.77-.44-.51.75-.76c.15.16.29.33.44.5"/><path class="cls-25" d="M73.07,74.47l-.75.76-.43-.51.76-.75.42.5"/><path class="cls-25" d="M72.65,74l-.76.75-.42-.5.76-.75.42.5"/><path class="cls-25" d="M72.23,73.47l-.76.75L71.32,74l-.18-.23.77-.75.18.23.14.18"/><path class="cls-23" d="M71.91,73.06l-.77.75-.28-.35.77-.75c.09.12.18.24.28.35"/><path class="cls-23" d="M71.63,72.71l-.77.75L70.5,73l.78-.74.35.46"/><path class="cls-23" d="M71.28,72.25,70.5,73c-.13-.16-.25-.33-.37-.5l-.15-.2.78-.73.15.2c.12.17.24.33.37.49"/><path class="cls-85" d="M70.76,71.56l-.78.73-.26-.35.79-.72.25.34"/><path class="cls-86" d="M70.51,71.22l-.79.72-.3-.43.79-.72.3.43"/><path class="cls-86" d="M70.21,70.79l-.79.72L69,70.9l-.1-.14.8-.71.09.14.42.6"/><path class="cls-86" d="M69.7,70.05l-.8.71c-.08-.12-.15-.24-.23-.35l.8-.71c.08.12.15.24.23.35"/><path class="cls-87" d="M69.47,69.7l-.8.71-.26-.4.81-.7.25.39"/><path class="cls-87" d="M69.22,69.31l-.81.7c-.16-.25-.32-.5-.47-.76l0-.06.81-.69,0,.07.47.74"/><path class="cls-87" d="M68.7,68.5l-.81.69a3.79,3.79,0,0,0-.2-.34l.82-.68.19.33"/><path class="cls-16" d="M68.51,68.17l-.82.68-.22-.37.82-.68c.07.12.14.25.22.37"/><path class="cls-16" d="M68.29,67.8l-.82.68c-.18-.3-.35-.61-.52-.91l0,0,.83-.66v0c.17.3.34.6.52.9"/><path class="cls-16" d="M67.76,66.88l-.83.66c-.05-.09-.1-.18-.14-.27l.82-.66.15.27"/><path class="cls-88" d="M67.61,66.61l-.82.66c-.07-.12-.14-.24-.2-.36l.83-.66.19.36"/><path class="cls-9" d="M67.42,66.25l-.83.66-.25-.47.83-.65.25.46"/><path class="cls-9" d="M67.17,65.79l-.83.65-.31-.6a.89.89,0,0,0-.08-.17l.84-.64a.8.8,0,0,0,.08.16l.3.6"/><path class="cls-9" d="M66.79,65l-.84.64-.18-.37.84-.64.18.37"/><path class="cls-10" d="M66.61,64.66l-.84.64c-.07-.14-.13-.28-.2-.41l.85-.64c.06.14.13.28.19.41"/><path class="cls-10" d="M66.42,64.25l-.85.64c-.12-.28-.25-.55-.37-.83l0-.06.85-.62,0,.07c.13.26.25.53.38.8"/><path class="cls-11" d="M66,63.38l-.85.62L65,63.65l.85-.61.15.34"/><path class="cls-12" d="M65.87,63l-.85.61-.17-.39.85-.62c.06.14.11.27.17.4"/><path class="cls-12" d="M65.7,62.64l-.85.62-.3-.73.86-.6c.1.24.19.48.29.71"/><path class="cls-13" d="M65.41,61.93l-.86.6v0l.86-.6v0"/><path class="cls-12" d="M65.4,61.9l-.86.6a2.6,2.6,0,0,0-.1-.25v0l.85-.59v0l.1.24"/><path class="cls-13" d="M65.29,61.64l-.85.59c0-.09-.07-.18-.11-.28l.86-.59c0,.1.07.19.1.28"/><path class="cls-13" d="M65.19,61.36l-.86.59-.15-.39L65,61l.15.39"/><path class="cls-89" d="M65,61l-.86.59-.18-.5.86-.59L65,61"/><path class="cls-89" d="M64.86,60.47l-.86.59c-.08-.22-.15-.44-.22-.66l0-.07.87-.57,0,.07.22.64"/><path class="cls-15" d="M64.62,59.76l-.87.57c0-.14-.09-.27-.13-.41l.87-.56c0,.13.08.27.13.4"/><path class="cls-90" d="M64.49,59.36l-.87.56c-.1-.3-.19-.6-.28-.9l.87-.55c.09.3.18.59.28.89"/><path class="cls-90" d="M64.21,58.47l-.87.55c-.05-.16-.1-.32-.14-.48v0l.87-.54v0c.05.16.09.32.14.48"/><path class="cls-91" d="M64.06,58l-.87.54-.09-.34.87-.54.09.34"/><path class="cls-91" d="M64,57.62l-.87.54c-.09-.29-.16-.59-.24-.89l.88-.52c.08.29.15.58.23.87"/><path class="cls-92" d="M63.74,56.75l-.88.52c0-.19-.09-.39-.13-.58v0l.88-.52v0c0,.19.09.38.14.58"/><path class="cls-93" d="M63.6,56.14l-.88.52c0-.11,0-.21-.07-.32l.88-.52c0,.11,0,.21.07.32"/><path class="cls-93" d="M63.53,55.82l-.88.52c-.07-.31-.14-.62-.2-.93l.89-.5c.06.3.12.61.19.91"/><path class="cls-98" d="M63.34,54.91l-.89.5c0-.18-.07-.37-.1-.56v0l.89-.49v0c0,.19.07.37.11.56"/><path class="cls-99" d="M63.23,54.32l-.89.49-.06-.37.89-.49.06.37"/><path class="cls-99" d="M63.17,54l-.89.49c-.06-.35-.11-.7-.16-1l.89-.47c.05.34.1.68.16,1"/><path class="cls-100" d="M63,52.92l-.89.47c0-.12,0-.24,0-.36V53l.89-.47v.08c0,.12,0,.24,0,.36"/><path class="cls-101" d="M63,52.48l-.89.47L62,52.39l.89-.47.06.56"/><path class="cls-101" d="M62.89,51.92l-.89.47c0-.37-.08-.74-.11-1.11l.89-.45c0,.36.07.73.11,1.09"/><path class="cls-102" d="M62.78,50.83l-.89.45v-.05c0-.09,0-.18,0-.27l.89-.44,0,.26v0"/><path class="cls-103" d="M62.76,50.52l-.89.44c0-.37,0-.74,0-1.12l.89-.43c0,.37,0,.74,0,1.11"/><path class="cls-102" d="M62.71,49.41l-.89.43c0-.13,0-.26,0-.39v-.11l.89-.42V49c0,.13,0,.26,0,.39"/><path class="cls-104" d="M62.69,48.92l-.89.42c0-.29,0-.58,0-.87l.89-.42v.87"/><path class="cls-105" d="M62.69,48.05l-.89.42c0-.26,0-.52,0-.78v-.07l.89-.4v.07c0,.25,0,.51,0,.76"/><path class="cls-105" d="M62.7,47.22l-.89.4c0-.29,0-.57,0-.86l.89-.39c0,.28,0,.57,0,.85"/><path class="cls-105" d="M62.74,46.37l-.89.39.06-.79c0-.17,0-.34.05-.51l.88-.38c0,.17,0,.34,0,.5l-.06.79"/><path class="cls-106" d="M62.84,45.08l-.88.38q0-.52.12-1.05l.88-.36-.12,1"/><path class="cls-107" d="M63,44.05l-.88.36c.05-.38.11-.76.17-1.14l.89-.34c-.07.37-.13.74-.18,1.12"/><path class="cls-107" d="M63.14,42.93l-.89.34c.08-.43.16-.86.25-1.29l.88-.33c-.09.42-.17.85-.24,1.28"/><path class="cls-108" d="M63.38,41.65,62.5,42c.11-.52.24-1,.38-1.54l.87-.31c-.13.5-.26,1-.37,1.52"/><path class="cls-108" d="M63.75,40.13l-.87.31c.19-.72.41-1.42.65-2.1l.87-.29c-.24.68-.46,1.37-.65,2.08"/><path class="cls-108" d="M64.4,38.05l-.87.29a28.68,28.68,0,0,1,2.28-4.93c.29-.48.58-.95.89-1.41l.83-.2c-.31.45-.6.92-.88,1.4a27.79,27.79,0,0,0-2.25,4.85"/><path class="cls-108" d="M67.53,31.8l-.83.2c.41-.61.84-1.2,1.29-1.78L68.8,30c-.45.57-.87,1.16-1.27,1.76"/><path class="cls-108" d="M68.8,30l-.81.18c.32-.41.66-.81,1-1.2l.8-.16c-.34.39-.67.78-1,1.18"/><path class="cls-107" d="M69.79,28.86,69,29c.29-.33.58-.64.88-1l.79-.14c-.3.3-.59.62-.87.94"/><path class="cls-107" d="M70.66,27.92l-.79.14c.27-.27.54-.54.82-.8l.77-.14-.8.8"/><path class="cls-106" d="M71.46,27.12l-.77.14.76-.7.76-.13-.75.69"/><path class="cls-105" d="M72.21,26.43l-.76.13.72-.62.76-.12-.72.61"/><path class="cls-105" d="M72.93,25.82l-.76.12.7-.56.75-.11-.69.55"/><path class="cls-105" d="M73.62,25.27l-.75.11.68-.51.74-.1c-.23.16-.45.33-.67.5"/><path class="cls-104" d="M74.29,24.77l-.74.1.66-.46.73-.1c-.22.15-.44.3-.65.46"/><path class="cls-102" d="M74.94,24.31l-.73.1.5-.34.13-.08.72-.1-.12.09c-.17.1-.34.22-.5.33"/><path class="cls-103" d="M75.56,23.89l-.72.1c.33-.22.67-.42,1-.63l.71-.08-1,.61"/><path class="cls-102" d="M76.56,23.28l-.71.08.29-.17,0,0,.7-.08,0,0-.28.17"/><path class="cls-101" d="M76.88,23.09l-.7.08.87-.48.7-.08-.87.48"/><path class="cls-101" d="M77.75,22.61l-.7.08.52-.27.69-.07-.51.26"/><path class="cls-100" d="M78.26,22.35l-.69.07.06,0,.32-.16.69-.07-.33.16,0,0"/><path class="cls-99" d="M78.64,22.16l-.69.07.94-.44.67-.06-.92.43"/><path class="cls-99" d="M79.56,21.73l-.67.06.29-.13h0l.66-.07,0,0-.28.13"/><path class="cls-98" d="M79.88,21.58l-.66.07.7-.3.66-.06-.7.29"/><path class="cls-93" d="M80.58,21.29l-.66.06.7-.27.65,0-.69.26"/><path class="cls-93" d="M81.27,21l-.65,0L80.8,21l.07,0,.65-.06-.08,0-.17.07"/><path class="cls-92" d="M81.52,20.93l-.65.06.91-.32.63-.05-.89.31"/><path class="cls-91" d="M82.41,20.62l-.63.05.57-.18.63,0-.57.18"/><path class="cls-91" d="M83,20.44l-.63,0,.12,0,.15-.05.62,0-.15,0-.11,0"/><path class="cls-90" d="M83.24,20.35l-.62,0,.95-.27.61,0-.94.26"/><path class="cls-90" d="M84.18,20.09l-.61,0L84.1,20l.6,0-.52.14"/><path class="cls-15" d="M84.7,20l-.6,0,.1,0,.19,0,.59,0-.18,0-.1,0"/><path class="cls-89" d="M85,19.88l-.59,0,1-.22.59,0-1,.22"/><path class="cls-89" d="M85.93,19.66l-.59,0,.55-.11.57,0-.53.11"/><path class="cls-13" d="M86.46,19.55l-.57,0,.1,0,.18,0,.57,0-.17,0-.11,0"/><path class="cls-13" d="M86.74,19.5l-.57,0,1-.17.56,0-1,.17"/><path class="cls-12" d="M87.7,19.33l-.56,0,.57-.08.55,0-.56.08"/><path class="cls-12" d="M88.26,19.25l-.55,0,.13,0,.55,0-.13,0"/></g></g></g></g><g class="cls-113"><g class="cls-4"><polygon class="cls-114" points="112.02 46.03 119.09 49.53 116.49 56.17 109.42 52.67 112.02 46.03"/><polygon class="cls-114" points="97.05 50.9 104.11 54.4 101.51 61.03 94.44 57.54 97.05 50.9"/><polygon class="cls-114" points="90.13 35.2 110.17 45.12 107.75 51.29 94.33 44.65 89.44 57.14 82.81 53.87 90.13 35.2"/><polygon class="cls-114" points="109.35 54.92 115.92 58.17 108.55 77 88.67 67.16 91.11 60.94 104.41 67.52 109.35 54.92"/><polygon class="cls-114" points="82.07 55.76 89.14 59.26 86.54 65.9 79.47 62.4 82.07 55.76"/></g></g><g class="cls-4"><polygon class="cls-115" points="111.4 50.73 109.94 52.23 112.54 45.59 114 44.09 111.4 50.73"/><polygon class="cls-116" points="118.47 54.23 117.01 55.73 109.94 52.23 111.4 50.73 118.47 54.23"/><polygon class="cls-117" points="114 44.09 121.07 47.59 118.47 54.23 111.4 50.73 114 44.09"/><polygon class="cls-116" points="109.73 49.34 108.27 50.84 94.86 44.2 96.32 42.7 109.73 49.34"/><polygon class="cls-117" points="99.03 48.95 106.1 52.45 103.5 59.09 96.43 55.59 99.03 48.95"/><polygon class="cls-116" points="103.5 59.09 102.03 60.59 94.97 57.09 96.43 55.59 103.5 59.09"/><polygon class="cls-115" points="96.43 55.59 94.97 57.09 97.57 50.45 99.03 48.95 96.43 55.59"/><polygon class="cls-115" points="106.4 65.58 104.94 67.08 109.87 54.48 111.33 52.98 106.4 65.58"/><polygon class="cls-117" points="92.11 33.25 112.15 43.17 109.73 49.34 96.32 42.7 91.42 55.2 84.8 51.92 92.11 33.25"/><polygon class="cls-115" points="84.8 51.92 83.34 53.42 90.65 34.76 92.11 33.25 84.8 51.92"/><polygon class="cls-116" points="91.42 55.2 89.96 56.7 83.34 53.42 84.8 51.92 91.42 55.2"/><polygon class="cls-117" points="111.33 52.98 117.9 56.23 110.53 75.05 90.66 65.22 93.09 58.99 106.4 65.58 111.33 52.98"/><polygon class="cls-116" points="110.53 75.05 109.07 76.55 89.19 66.72 90.66 65.22 110.53 75.05"/><polygon class="cls-115" points="90.66 65.22 89.19 66.72 91.63 60.49 93.09 58.99 90.66 65.22"/><polygon class="cls-116" points="88.52 63.95 87.06 65.46 79.99 61.96 81.45 60.46 88.52 63.95"/><polygon class="cls-115" points="81.45 60.46 79.99 61.96 82.59 55.32 84.06 53.82 81.45 60.46"/><polygon class="cls-117" points="84.06 53.82 91.12 57.31 88.52 63.95 81.45 60.46 84.06 53.82"/></g></g></g></svg>