<svg xmlns="http://www.w3.org/2000/svg" xmlns:xlink="http://www.w3.org/1999/xlink" width="200" zoomAndPan="magnify" viewBox="0 0 150 149.999998" height="200" preserveAspectRatio="xMidYMid meet" version="1.0"><defs><g/><clipPath id="a3999e214c"><path d="M 17.074219 17.074219 L 132.574219 17.074219 L 132.574219 132.574219 L 17.074219 132.574219 Z M 17.074219 17.074219 " clip-rule="nonzero"/></clipPath></defs><g clip-path="url(#a3999e214c)"><path fill="#040606" d="M 50.152344 73.972656 L 73.972656 50.152344 C 74.277344 49.84375 74.636719 49.804688 74.824219 49.804688 C 75.007812 49.804688 75.367188 49.84375 75.671875 50.152344 L 99.503906 73.972656 C 99.8125 74.277344 99.851562 74.636719 99.851562 74.824219 C 99.851562 75.007812 99.8125 75.367188 99.503906 75.671875 L 75.671875 99.492188 C 75.367188 99.800781 75.007812 99.84375 74.824219 99.84375 C 74.636719 99.84375 74.277344 99.800781 73.972656 99.492188 L 50.152344 75.671875 C 49.84375 75.367188 49.804688 75.007812 49.804688 74.824219 C 49.804688 74.636719 49.84375 74.277344 50.152344 73.972656 Z M 74.824219 17.074219 C 42.984375 17.074219 17.074219 42.984375 17.074219 74.824219 C 17.074219 106.671875 42.984375 132.574219 74.824219 132.574219 C 106.671875 132.574219 132.574219 106.671875 132.574219 74.824219 C 132.574219 42.984375 106.671875 17.074219 74.824219 17.074219 " fill-opacity="1" fill-rule="nonzero"/></g><g fill="#ff0000" fill-opacity="1"><g transform="translate(60.792386, 87.054614)"><g><path d="M 20.648438 -5.753906 L 24.035156 -9.140625 L 24.035156 -20.3125 L 20.648438 -23.695312 L 0.167969 -23.695312 L 0.167969 -18.28125 L 18.617188 -18.28125 L 18.617188 -11.171875 L 8.125 -11.171875 L 8.125 -16.585938 L 2.707031 -16.585938 L 2.707031 0 L 8.125 0 L 8.125 -5.753906 Z M 20.648438 -5.753906 "/></g></g></g><g fill="#00ffff" fill-opacity="1"><g transform="translate(64.152392, 86.642054)"><g><path d="M 20.648438 -5.753906 L 24.035156 -9.140625 L 24.035156 -20.3125 L 20.648438 -23.695312 L 0.167969 -23.695312 L 0.167969 -18.28125 L 18.617188 -18.28125 L 18.617188 -11.171875 L 8.125 -11.171875 L 8.125 -16.585938 L 2.707031 -16.585938 L 2.707031 0 L 8.125 0 L 8.125 -5.753906 Z M 20.648438 -5.753906 "/></g></g></g><g fill="#88ff55" fill-opacity="1"><g transform="translate(62.472389, 86.848334)"><g><path d="M 20.648438 -5.753906 L 24.035156 -9.140625 L 24.035156 -20.3125 L 20.648438 -23.695312 L 0.167969 -23.695312 L 0.167969 -18.28125 L 18.617188 -18.28125 L 18.617188 -11.171875 L 8.125 -11.171875 L 8.125 -16.585938 L 2.707031 -16.585938 L 2.707031 0 L 8.125 0 L 8.125 -5.753906 Z M 20.648438 -5.753906 "/></g></g></g></svg>