<svg xmlns="http://www.w3.org/2000/svg" xmlns:xlink="http://www.w3.org/1999/xlink" width="1238" zoomAndPan="magnify" viewBox="0 0 928.5 259.499997" height="346" preserveAspectRatio="xMidYMid meet" version="1.0"><defs><g/><clipPath id="437eba314d"><path d="M 0.644531 0 L 927.359375 0 L 927.359375 259 L 0.644531 259 Z M 0.644531 0 " clip-rule="nonzero"/></clipPath><clipPath id="5011dde5bd"><path d="M 0.644531 186.703125 L 89 186.703125 L 89 259 L 0.644531 259 Z M 0.644531 186.703125 " clip-rule="nonzero"/></clipPath><clipPath id="2509a04e86"><path d="M 0.644531 189 L 114.191406 189 L 114.191406 259 L 0.644531 259 Z M 0.644531 189 " clip-rule="nonzero"/></clipPath><clipPath id="3677d94e44"><path d="M 838.445312 0 L 927.359375 0 L 927.359375 55 L 838.445312 55 Z M 838.445312 0 " clip-rule="nonzero"/></clipPath><clipPath id="85ed2bbc95"><path d="M 847 0 L 927.359375 0 L 927.359375 67.191406 L 847 67.191406 Z M 847 0 " clip-rule="nonzero"/></clipPath></defs><g clip-path="url(#437eba314d)"><path fill="#ffffff" d="M 0.644531 0 L 927.855469 0 L 927.855469 265.882812 L 0.644531 265.882812 Z M 0.644531 0 " fill-opacity="1" fill-rule="nonzero"/><path fill="#ffffff" d="M 0.644531 0 L 927.855469 0 L 927.855469 259.140625 L 0.644531 259.140625 Z M 0.644531 0 " fill-opacity="1" fill-rule="nonzero"/><path fill="#051d40" d="M 0.644531 0 L 927.855469 0 L 927.855469 259.140625 L 0.644531 259.140625 Z M 0.644531 0 " fill-opacity="1" fill-rule="nonzero"/></g><g clip-path="url(#5011dde5bd)"><path fill="#0b3066" d="M 88.40625 250.429688 C 88.40625 285.617188 59.835938 314.15625 24.609375 314.15625 C -10.617188 314.15625 -39.183594 285.617188 -39.183594 250.429688 C -39.183594 215.242188 -10.617188 186.703125 24.609375 186.703125 C 59.835938 186.703125 88.40625 215.242188 88.40625 250.429688 Z M 88.40625 250.429688 " fill-opacity="1" fill-rule="nonzero"/></g><g clip-path="url(#2509a04e86)"><path fill="#38b6ff" d="M 51.519531 224.039062 C 45.503906 218.03125 38.488281 213.300781 30.699219 210.003906 C 22.628906 206.59375 14.050781 204.863281 5.207031 204.863281 C -3.640625 204.863281 -12.21875 206.59375 -20.289062 210.003906 C -28.097656 213.300781 -35.09375 218.03125 -41.109375 224.039062 C -47.125 230.046875 -51.859375 237.054688 -55.15625 244.835938 C -58.570312 252.898438 -60.304688 261.46875 -60.304688 270.304688 C -60.304688 279.140625 -58.570312 287.710938 -55.15625 295.773438 C -51.859375 303.570312 -47.125 310.558594 -41.109375 316.570312 C -35.09375 322.578125 -28.078125 327.304688 -20.289062 330.601562 C -12.21875 334.011719 -3.640625 335.746094 5.207031 335.746094 C 14.050781 335.746094 22.628906 334.011719 30.699219 330.601562 C 38.507812 327.304688 45.503906 322.578125 51.519531 316.570312 C 57.535156 310.558594 62.269531 303.550781 65.566406 295.773438 C 68.980469 287.710938 70.714844 279.140625 70.714844 270.304688 C 70.714844 261.46875 68.980469 252.898438 65.566406 244.835938 C 62.25 237.035156 57.535156 230.046875 51.519531 224.039062 Z M 5.1875 332.316406 C -29.039062 332.316406 -56.875 304.511719 -56.875 270.324219 C -56.875 236.132812 -29.039062 208.308594 5.1875 208.308594 C 39.414062 208.308594 67.246094 236.113281 67.246094 270.304688 C 67.246094 304.496094 39.414062 332.316406 5.1875 332.316406 Z M 65.4375 201.507812 L 52.480469 193.257812 L 54.574219 189.980469 L 65.453125 196.894531 L 77.371094 189.300781 L 89.289062 196.894531 L 101.207031 189.300781 L 114.183594 197.554688 L 112.089844 200.832031 L 101.207031 193.917969 L 89.289062 201.507812 L 77.371094 193.917969 Z M 101.191406 201.886719 L 114.164062 210.136719 L 112.070312 213.414062 L 101.191406 206.5 L 89.273438 214.09375 L 77.355469 206.5 L 65.4375 214.09375 L 52.480469 205.839844 L 54.574219 202.5625 L 65.453125 209.476562 L 77.371094 201.886719 L 89.289062 209.476562 Z M 101.191406 214.46875 L 114.164062 222.71875 L 112.070312 225.996094 L 101.191406 219.085938 L 89.273438 226.675781 L 77.355469 219.085938 L 65.4375 226.675781 L 52.480469 218.425781 L 54.574219 215.148438 L 65.453125 222.0625 L 77.371094 214.46875 L 89.289062 222.0625 Z M 101.191406 214.46875 " fill-opacity="1" fill-rule="nonzero"/></g><g clip-path="url(#3677d94e44)"><path fill="#0b3066" d="M 890.855469 -58.484375 C 892.242188 -58.589844 893.625 -58.632812 895.023438 -58.632812 C 926.277344 -58.632812 951.617188 -33.292969 951.617188 -2.042969 C 951.617188 -0.640625 951.558594 0.757812 951.46875 2.125 Z M 905.179688 53.632812 C 911.953125 52.414062 918.289062 49.976562 923.992188 46.578125 L 846.40625 -31.007812 C 843.007812 -25.304688 840.582031 -18.96875 839.347656 -12.199219 Z M 862.011719 -47.996094 C 857.03125 -44.414062 852.667969 -40.035156 849.085938 -35.070312 L 928.066406 43.914062 C 933.050781 40.332031 937.414062 35.953125 940.992188 30.988281 Z M 884.882812 -57.730469 C 878.113281 -56.511719 871.777344 -54.074219 866.074219 -50.675781 L 943.65625 26.910156 C 947.058594 21.207031 949.480469 14.871094 950.714844 8.101562 Z M 838.597656 -6.222656 C 838.492188 -4.839844 838.445312 -3.457031 838.445312 -2.054688 C 838.445312 29.195312 863.785156 54.535156 895.039062 54.535156 C 896.4375 54.535156 897.839844 54.476562 899.207031 54.386719 Z M 838.597656 -6.222656 " fill-opacity="1" fill-rule="nonzero"/></g><g clip-path="url(#85ed2bbc95)"><path fill="#38b6ff" d="M 947.101562 -32.859375 C 936.027344 -43.933594 921.3125 -50.027344 905.664062 -50.027344 C 890.015625 -50.027344 875.296875 -43.933594 864.222656 -32.859375 C 853.148438 -21.785156 847.054688 -7.066406 847.054688 8.582031 C 847.054688 24.230469 853.164062 38.960938 864.222656 50.023438 C 875.296875 61.097656 890.015625 67.191406 905.664062 67.191406 C 921.3125 67.191406 936.027344 61.097656 947.101562 50.023438 C 958.179688 38.949219 964.273438 24.230469 964.273438 8.582031 C 964.273438 -7.066406 958.179688 -21.785156 947.101562 -32.859375 Z M 905.664062 63.160156 C 875.570312 63.160156 851.085938 38.675781 851.085938 8.582031 C 851.085938 -21.511719 875.570312 -45.996094 905.664062 -45.996094 C 935.757812 -45.996094 960.238281 -21.511719 960.238281 8.582031 C 960.238281 38.675781 935.757812 63.160156 905.664062 63.160156 Z M 905.664062 63.160156 " fill-opacity="1" fill-rule="nonzero"/></g><path fill="#0e2444" d="M 267.695312 149.515625 C 265.476562 125.375 266.386719 100.929688 270.390625 77.007812 C 273.871094 56.265625 283.269531 32.386719 303.851562 28.289062 C 324.128906 24.238281 341.792969 42.101562 353.542969 59.183594 C 365.289062 76.265625 378.210938 96.09375 398.707031 98.96875 C 422.898438 102.324219 442.042969 80.578125 460.230469 64.238281 C 489.6875 37.832031 529.675781 21.578125 568.878906 26.414062 C 608.085938 31.253906 645.070312 59.621094 654.378906 98.097656 C 662.953125 133.566406 659.296875 166.992188 638.933594 197.277344 C 631.929688 207.734375 612.652344 221.765625 601.601562 227.78125 C 584.066406 237.277344 562.136719 234.230469 543.949219 226.167969 C 525.714844 218.0625 509.921875 205.46875 492.734375 195.402344 C 484.46875 190.566406 475.679688 186.25 466.191406 185.074219 C 457.492188 183.984375 448.65625 185.640625 440.261719 188.082031 C 418.589844 194.355469 398.75 205.773438 377.605469 213.617188 C 356.457031 221.460938 332.394531 225.511719 311.597656 216.796875 C 280.878906 203.898438 270.085938 187.90625 267.695312 149.515625 " fill-opacity="1" fill-rule="nonzero"/><g fill="#ffffff" fill-opacity="1"><g transform="translate(254.331775, 153.277371)"><g><path d="M 39.15625 -48.484375 L 39.15625 -39.015625 L 26.3125 -39.015625 L 26.3125 0 L 14.5 0 L 14.5 -39.015625 L 1.65625 -39.015625 L 1.65625 -48.484375 Z M 39.15625 -48.484375 "/></g></g></g><g fill="#ffffff" fill-opacity="1"><g transform="translate(296.391628, 153.277371)"><g><path d="M 16.09375 -39.015625 L 16.09375 -29.21875 L 31.90625 -29.21875 L 31.90625 -20.09375 L 16.09375 -20.09375 L 16.09375 -9.46875 L 33.984375 -9.46875 L 33.984375 0 L 4.28125 0 L 4.28125 -48.484375 L 33.984375 -48.484375 L 33.984375 -39.015625 Z M 16.09375 -39.015625 "/></g></g></g><g fill="#ffffff" fill-opacity="1"><g transform="translate(334.998313, 153.277371)"><g><path d="M 21.828125 0.484375 C 18.273438 0.484375 15.09375 -0.0859375 12.28125 -1.234375 C 9.476562 -2.390625 7.234375 -4.09375 5.546875 -6.34375 C 3.867188 -8.601562 2.988281 -11.320312 2.90625 -14.5 L 15.46875 -14.5 C 15.65625 -12.707031 16.273438 -11.335938 17.328125 -10.390625 C 18.390625 -9.453125 19.773438 -8.984375 21.484375 -8.984375 C 23.234375 -8.984375 24.613281 -9.382812 25.625 -10.1875 C 26.632812 -10.988281 27.140625 -12.101562 27.140625 -13.53125 C 27.140625 -14.726562 26.734375 -15.71875 25.921875 -16.5 C 25.117188 -17.289062 24.128906 -17.9375 22.953125 -18.4375 C 21.785156 -18.945312 20.117188 -19.523438 17.953125 -20.171875 C 14.828125 -21.128906 12.273438 -22.09375 10.296875 -23.0625 C 8.316406 -24.03125 6.609375 -25.457031 5.171875 -27.34375 C 3.742188 -29.238281 3.03125 -31.703125 3.03125 -34.734375 C 3.03125 -39.242188 4.664062 -42.773438 7.9375 -45.328125 C 11.207031 -47.890625 15.46875 -49.171875 20.71875 -49.171875 C 26.0625 -49.171875 30.363281 -47.890625 33.625 -45.328125 C 36.894531 -42.773438 38.644531 -39.222656 38.875 -34.671875 L 26.109375 -34.671875 C 26.015625 -36.234375 25.4375 -37.460938 24.375 -38.359375 C 23.320312 -39.253906 21.960938 -39.703125 20.296875 -39.703125 C 18.867188 -39.703125 17.71875 -39.320312 16.84375 -38.5625 C 15.96875 -37.8125 15.53125 -36.722656 15.53125 -35.296875 C 15.53125 -33.722656 16.265625 -32.5 17.734375 -31.625 C 19.210938 -30.75 21.519531 -29.804688 24.65625 -28.796875 C 27.78125 -27.734375 30.320312 -26.71875 32.28125 -25.75 C 34.238281 -24.789062 35.929688 -23.390625 37.359375 -21.546875 C 38.785156 -19.703125 39.5 -17.332031 39.5 -14.4375 C 39.5 -11.675781 38.796875 -9.164062 37.390625 -6.90625 C 35.992188 -4.644531 33.957031 -2.847656 31.28125 -1.515625 C 28.613281 -0.179688 25.460938 0.484375 21.828125 0.484375 Z M 21.828125 0.484375 "/></g></g></g><g fill="#ffffff" fill-opacity="1"><g transform="translate(378.7157, 153.277371)"><g><path d="M 39.15625 -48.484375 L 39.15625 -39.015625 L 26.3125 -39.015625 L 26.3125 0 L 14.5 0 L 14.5 -39.015625 L 1.65625 -39.015625 L 1.65625 -48.484375 Z M 39.15625 -48.484375 "/></g></g></g><g fill="#ffffff" fill-opacity="1"><g transform="translate(420.77555, 153.277371)"><g/></g></g><g fill="#ffffff" fill-opacity="1"><g transform="translate(436.660323, 153.277371)"><g><path d="M 39.15625 -48.484375 L 39.15625 -39.015625 L 26.3125 -39.015625 L 26.3125 0 L 14.5 0 L 14.5 -39.015625 L 1.65625 -39.015625 L 1.65625 -48.484375 Z M 39.15625 -48.484375 "/></g></g></g><g fill="#ffffff" fill-opacity="1"><g transform="translate(478.720172, 153.277371)"><g><path d="M 27.203125 0.484375 C 22.648438 0.484375 18.472656 -0.570312 14.671875 -2.6875 C 10.878906 -4.8125 7.863281 -7.769531 5.625 -11.5625 C 3.394531 -15.363281 2.28125 -19.632812 2.28125 -24.375 C 2.28125 -29.125 3.394531 -33.382812 5.625 -37.15625 C 7.863281 -40.925781 10.878906 -43.867188 14.671875 -45.984375 C 18.472656 -48.109375 22.648438 -49.171875 27.203125 -49.171875 C 31.765625 -49.171875 35.941406 -48.109375 39.734375 -45.984375 C 43.535156 -43.867188 46.53125 -40.925781 48.71875 -37.15625 C 50.90625 -33.382812 52 -29.125 52 -24.375 C 52 -19.632812 50.894531 -15.363281 48.6875 -11.5625 C 46.476562 -7.769531 43.484375 -4.8125 39.703125 -2.6875 C 35.929688 -0.570312 31.765625 0.484375 27.203125 0.484375 Z M 27.203125 -10.296875 C 31.078125 -10.296875 34.175781 -11.582031 36.5 -14.15625 C 38.820312 -16.738281 39.984375 -20.144531 39.984375 -24.375 C 39.984375 -28.65625 38.820312 -32.070312 36.5 -34.625 C 34.175781 -37.1875 31.078125 -38.46875 27.203125 -38.46875 C 23.296875 -38.46875 20.175781 -37.203125 17.84375 -34.671875 C 15.519531 -32.140625 14.359375 -28.707031 14.359375 -24.375 C 14.359375 -20.09375 15.519531 -16.675781 17.84375 -14.125 C 20.175781 -11.570312 23.296875 -10.296875 27.203125 -10.296875 Z M 27.203125 -10.296875 "/></g></g></g><g fill="#ffffff" fill-opacity="1"><g transform="translate(534.24743, 153.277371)"><g><path d="M 32.390625 0 L 16.09375 -21.40625 L 16.09375 0 L 4.28125 0 L 4.28125 -48.484375 L 16.09375 -48.484375 L 16.09375 -27.203125 L 32.25 -48.484375 L 46.140625 -48.484375 L 27.34375 -24.71875 L 46.828125 0 Z M 32.390625 0 "/></g></g></g><g fill="#ffffff" fill-opacity="1"><g transform="translate(583.628024, 153.277371)"><g><path d="M 16.09375 -39.015625 L 16.09375 -29.21875 L 31.90625 -29.21875 L 31.90625 -20.09375 L 16.09375 -20.09375 L 16.09375 -9.46875 L 33.984375 -9.46875 L 33.984375 0 L 4.28125 0 L 4.28125 -48.484375 L 33.984375 -48.484375 L 33.984375 -39.015625 Z M 16.09375 -39.015625 "/></g></g></g><g fill="#ffffff" fill-opacity="1"><g transform="translate(622.23472, 153.277371)"><g><path d="M 47.65625 0 L 35.84375 0 L 16.09375 -29.90625 L 16.09375 0 L 4.28125 0 L 4.28125 -48.484375 L 16.09375 -48.484375 L 35.84375 -18.4375 L 35.84375 -48.484375 L 47.65625 -48.484375 Z M 47.65625 0 "/></g></g></g><g fill="#ffffff" fill-opacity="1"><g transform="translate(380.536743, 214.740382)"><g><path d="M 21.828125 0.484375 C 18.273438 0.484375 15.09375 -0.0859375 12.28125 -1.234375 C 9.476562 -2.390625 7.234375 -4.09375 5.546875 -6.34375 C 3.867188 -8.601562 2.988281 -11.320312 2.90625 -14.5 L 15.46875 -14.5 C 15.65625 -12.707031 16.273438 -11.335938 17.328125 -10.390625 C 18.390625 -9.453125 19.773438 -8.984375 21.484375 -8.984375 C 23.234375 -8.984375 24.613281 -9.382812 25.625 -10.1875 C 26.632812 -10.988281 27.140625 -12.101562 27.140625 -13.53125 C 27.140625 -14.726562 26.734375 -15.71875 25.921875 -16.5 C 25.117188 -17.289062 24.128906 -17.9375 22.953125 -18.4375 C 21.785156 -18.945312 20.117188 -19.523438 17.953125 -20.171875 C 14.828125 -21.128906 12.273438 -22.09375 10.296875 -23.0625 C 8.316406 -24.03125 6.609375 -25.457031 5.171875 -27.34375 C 3.742188 -29.238281 3.03125 -31.703125 3.03125 -34.734375 C 3.03125 -39.242188 4.664062 -42.773438 7.9375 -45.328125 C 11.207031 -47.890625 15.46875 -49.171875 20.71875 -49.171875 C 26.0625 -49.171875 30.363281 -47.890625 33.625 -45.328125 C 36.894531 -42.773438 38.644531 -39.222656 38.875 -34.671875 L 26.109375 -34.671875 C 26.015625 -36.234375 25.4375 -37.460938 24.375 -38.359375 C 23.320312 -39.253906 21.960938 -39.703125 20.296875 -39.703125 C 18.867188 -39.703125 17.71875 -39.320312 16.84375 -38.5625 C 15.96875 -37.8125 15.53125 -36.722656 15.53125 -35.296875 C 15.53125 -33.722656 16.265625 -32.5 17.734375 -31.625 C 19.210938 -30.75 21.519531 -29.804688 24.65625 -28.796875 C 27.78125 -27.734375 30.320312 -26.71875 32.28125 -25.75 C 34.238281 -24.789062 35.929688 -23.390625 37.359375 -21.546875 C 38.785156 -19.703125 39.5 -17.332031 39.5 -14.4375 C 39.5 -11.675781 38.796875 -9.164062 37.390625 -6.90625 C 35.992188 -4.644531 33.957031 -2.847656 31.28125 -1.515625 C 28.613281 -0.179688 25.460938 0.484375 21.828125 0.484375 Z M 21.828125 0.484375 "/></g></g></g><g fill="#ffffff" fill-opacity="1"><g transform="translate(424.254127, 214.740382)"><g><path d="M 34.46875 -8.5625 L 16.375 -8.5625 L 13.46875 0 L 1.109375 0 L 18.640625 -48.484375 L 32.328125 -48.484375 L 49.859375 0 L 37.359375 0 Z M 31.421875 -17.6875 L 25.421875 -35.421875 L 19.46875 -17.6875 Z M 31.421875 -17.6875 "/></g></g></g><g fill="#ffffff" fill-opacity="1"><g transform="translate(476.397259, 214.740382)"><g><path d="M 16.09375 -9.109375 L 31.5625 -9.109375 L 31.5625 0 L 4.28125 0 L 4.28125 -48.484375 L 16.09375 -48.484375 Z M 16.09375 -9.109375 "/></g></g></g><g fill="#ffffff" fill-opacity="1"><g transform="translate(510.583882, 214.740382)"><g><path d="M 16.09375 -39.015625 L 16.09375 -29.21875 L 31.90625 -29.21875 L 31.90625 -20.09375 L 16.09375 -20.09375 L 16.09375 -9.46875 L 33.984375 -9.46875 L 33.984375 0 L 4.28125 0 L 4.28125 -48.484375 L 33.984375 -48.484375 L 33.984375 -39.015625 Z M 16.09375 -39.015625 "/></g></g></g></svg>